<?xml version="1.0" encoding="UTF-8" standalone="no"?>
<!-- Generator: Adobe Illustrator 19.1.0, SVG Export Plug-In . SVG Version: 6.00 Build 0)  -->

<svg
   xmlns:dc="http://purl.org/dc/elements/1.1/"
   xmlns:cc="http://creativecommons.org/ns#"
   xmlns:rdf="http://www.w3.org/1999/02/22-rdf-syntax-ns#"
   xmlns:svg="http://www.w3.org/2000/svg"
   xmlns="http://www.w3.org/2000/svg"
   xmlns:sodipodi="http://sodipodi.sourceforge.net/DTD/sodipodi-0.dtd"
   xmlns:inkscape="http://www.inkscape.org/namespaces/inkscape"
   version="1.1"
   id="Layer_1"
   x="0px"
   y="0px"
   width="46"
   height="46"
   viewBox="0 0 46 46"
   enable-background="new 0 0 664 464"
   xml:space="preserve"
   inkscape:version="0.91 r13725"
   sodipodi:docname="email.svg"><metadata
     id="metadata129"><rdf:RDF><cc:Work
         rdf:about=""><dc:format>image/svg+xml</dc:format><dc:type
           rdf:resource="http://purl.org/dc/dcmitype/StillImage" /><dc:title></dc:title></cc:Work></rdf:RDF></metadata><defs
     id="defs127" /><sodipodi:namedview
     pagecolor="#ffffff"
     bordercolor="#666666"
     borderopacity="1"
     objecttolerance="10"
     gridtolerance="10"
     guidetolerance="10"
     inkscape:pageopacity="0"
     inkscape:pageshadow="2"
     inkscape:window-width="1280"
     inkscape:window-height="721"
     id="namedview125"
     showgrid="false"
     inkscape:zoom="1.0172414"
     inkscape:cx="44.202008"
     inkscape:cy="-108.77547"
     inkscape:window-x="0"
     inkscape:window-y="27"
     inkscape:window-maximized="1"
     inkscape:current-layer="Layer_1"
     fit-margin-top="0"
     fit-margin-left="0"
     fit-margin-right="0"
     fit-margin-bottom="0" /><text
     font-size="13px"
     id="text3"
     style="font-size:13px;font-family:Helvetica;fill:#999999"
     x="-175.96851"
     y="398">https://github.com/konsav/social-icons</text>
<circle
     id="Oval"
     cx="-337"
     cy="23"
     r="22"
     style="fill:none;stroke:#000000;stroke-width:2" /><path
     id="Shape"
     d="m -335.7,36 -4.9,0 0,-11.5 -2.4,0 0,-4 2.4,0 0,-2.4 c 0,-3.2 1.4,-5.2 5.3,-5.2 l 3.3,0 0,4 -2,0 c -1.5,0 -1.6,0.6 -1.6,1.6 l 0,2 3.6,0 -0.4,4 -3.3,0 0,11.5 0,0 z"
     inkscape:connector-curvature="0" /><circle
     id="Oval_1_"
     cx="-277"
     cy="23"
     r="22"
     style="fill:none;stroke:#000000;stroke-width:2" /><path
     id="Shape_1_"
     d="m -268.5,17.8 c 0.9,-0.6 1.6,-1.5 1.9,-2.5 -0.8,0.5 -1.8,0.9 -2.7,1.1 -0.8,-0.9 -1.9,-1.4 -3.1,-1.4 -2.4,0 -4.3,2 -4.3,4.5 0,0.4 0,0.7 0.1,1 -3.6,-0.2 -6.8,-2 -8.9,-4.7 -0.4,0.7 -0.6,1.5 -0.6,2.3 0,1.6 0.8,3 1.9,3.8 -0.7,0 -1.4,-0.2 -2,-0.6 l 0,0.1 c 0,2.2 1.5,4 3.5,4.5 -0.4,0.1 -0.7,0.2 -1.1,0.2 -0.3,0 -0.5,0 -0.8,-0.1 0.5,1.8 2.1,3.1 4,3.2 -1.5,1.2 -3.3,1.9 -5.4,1.9 -0.3,0 -0.7,0 -1,-0.1 1.9,1.3 4.2,2 6.6,2 7.9,0 12.3,-6.9 12.3,-12.9 0,-0.2 0,-0.4 0,-0.6 0.8,-0.6 1.6,-1.4 2.1,-2.4 -0.8,0.4 -1.6,0.6 -2.5,0.7 z"
     inkscape:connector-curvature="0" /><circle
     id="Oval_2_"
     cx="-217"
     cy="23"
     r="22"
     style="fill:none;stroke:#000000;stroke-width:2" /><path
     id="Shape_2_"
     d="m -220.8,34.9 c -2.7,0 -4.7,-1.7 -4.7,-3.8 0,-2 2.4,-3.7 5.1,-3.7 0.6,0 1.2,0.1 1.8,0.3 1.5,1 2.5,1.6 2.8,2.8 0.1,0.2 0.1,0.5 0.1,0.7 0.1,2 -1.3,3.7 -5.1,3.7 m 0.7,-12.2 c -1.8,-0.1 -3.6,-2.1 -3.9,-4.5 -0.3,-2.4 0.9,-4.3 2.7,-4.2 1.8,0.1 3.6,2 3.9,4.4 0.4,2.4 -0.9,4.3 -2.7,4.3 m 3.8,3.5 c -0.6,-0.5 -1.9,-1.6 -1.9,-2.2 0,-0.8 0.2,-1.1 1.4,-2 1.2,-0.9 2,-2.2 2,-3.7 0,-1.8 -0.8,-3.5 -2.3,-4.1 l 2.2,0 1.6,-1.2 -7.1,0 c -3.2,0 -6.2,2.4 -6.2,5.2 0,2.9 2.2,5.2 5.4,5.2 0.2,0 0.4,0 0.7,0 -0.2,0.4 -0.4,0.9 -0.4,1.3 0,0.8 0.4,1.4 1,2 -0.4,0 -0.8,0 -1.2,0 -3.9,0 -6.9,2.5 -6.9,5.1 0,2.6 3.3,4.2 7.2,4.2 4.5,0 6.9,-2.6 6.9,-5.1 0.1,-2.1 -0.5,-3.3 -2.4,-4.7 m 10.3,-3.3 -2.8,0 0,-2.8 -2.2,0 0,2.8 -2.8,0 0,2.2 2.8,0 0,2.8 2.2,0 0,-2.8 2.8,0 0,-2.2"
     inkscape:connector-curvature="0" /><circle
     id="Oval_3_"
     cx="-157"
     cy="23"
     r="22"
     style="fill:none;stroke:#000000;stroke-width:2" /><path
     id="Shape_3_"
     d="m -150.9,13 -12.3,0 c -2.1,0 -3.9,1.7 -3.9,3.9 l 0,12.3 c 0,2.1 1.7,3.9 3.9,3.9 l 12.3,0 c 2.1,0 3.9,-1.7 3.9,-3.9 l 0,-12.3 c 0,-2.2 -1.7,-3.9 -3.9,-3.9 l 0,0 z m 1.1,2.3 0.4,0 0,3.4 -3.4,0 0,-3.4 3,0 0,0 z m -10.1,5.6 c 0.6,-0.9 1.7,-1.5 2.9,-1.5 1.2,0 2.2,0.6 2.9,1.5 0.4,0.6 0.7,1.3 0.7,2.1 0,1.9 -1.6,3.5 -3.5,3.5 -1.9,0 -3.5,-1.6 -3.5,-3.5 -0.1,-0.8 0.1,-1.5 0.5,-2.1 l 0,0 z m 11,8.2 c 0,1.1 -0.9,1.9 -1.9,1.9 l -12.3,0 c -1.1,0 -1.9,-0.9 -1.9,-1.9 l 0,-8.2 3,0 c -0.3,0.6 -0.4,1.3 -0.4,2.1 0,3 2.5,5.5 5.5,5.5 3,0 5.5,-2.5 5.5,-5.5 0,-0.7 -0.1,-1.4 -0.4,-2.1 l 3,0 0,8.2 -0.1,0 z"
     inkscape:connector-curvature="0" /><circle
     id="Oval_4_"
     cx="-97"
     cy="23"
     r="22"
     style="fill:none;stroke:#000000;stroke-width:2" /><path
     id="Shape_4_"
     d="m -96.3,30.9 c 0,0 0.5,0 0.7,-0.3 0.2,-0.2 0.2,-0.6 0.2,-0.6 0,0 0,-2 0.9,-2.3 0.9,-0.3 2.1,1.9 3.3,2.7 0.9,0.6 1.7,0.5 1.7,0.5 l 3.3,0 c 0,0 1.7,-0.1 0.9,-1.5 -0.1,-0.1 -0.5,-1 -2.5,-2.8 -2.1,-1.9 -1.8,-1.6 0.7,-4.9 1.5,-2 2.1,-3.2 2,-3.8 -0.2,-0.5 -1.3,-0.4 -1.3,-0.4 l -3.8,0 c 0,0 -0.3,0 -0.5,0.1 -0.2,0.1 -0.3,0.4 -0.3,0.4 0,0 -0.6,1.6 -1.4,2.9 -1.7,2.8 -2.3,2.9 -2.6,2.8 -0.6,-0.4 -0.5,-1.6 -0.5,-2.5 0,-2.7 0.4,-3.8 -0.8,-4.1 -0.4,-0.1 -0.7,-0.2 -1.8,-0.2 -1.3,0 -2.5,0 -3.1,0.3 -0.4,0.2 -0.8,0.7 -0.6,0.7 0.2,0 0.8,0.1 1.1,0.5 0.4,0.5 0.4,1.7 0.4,1.7 0,0 0.2,3.2 -0.5,3.6 -0.5,0.3 -1.2,-0.3 -2.7,-2.8 -0.8,-1.3 -1.3,-2.7 -1.3,-2.7 0,0 -0.1,-0.3 -0.3,-0.4 -0.2,-0.2 -0.6,-0.2 -0.6,-0.2 l -3.6,0 c 0,0 -0.5,0 -0.7,0.2 -0.2,0.2 0,0.6 0,0.6 0,0 2.8,6.4 6,9.7 2.9,3 6.2,2.8 6.2,2.8 l 1.5,0 0,0 z"
     inkscape:connector-curvature="0" /><circle
     id="Oval_5_"
     cx="-37"
     cy="23"
     r="22"
     style="fill:none;stroke:#000000;stroke-width:2" /><path
     id="Shape_5_"
     d="m -37,14.6 c 1.4,0 2.6,1.1 2.6,2.6 0,1.4 -1.2,2.6 -2.6,2.6 -1.4,0 -2.6,-1.2 -2.6,-2.6 0,-1.4 1.2,-2.6 2.6,-2.6 l 0,0 z m 0,8.8 c 3.4,0 6.2,-2.8 6.2,-6.2 0,-3.4 -2.8,-6.2 -6.2,-6.2 -3.4,0 -6.2,2.8 -6.2,6.2 -0.1,3.4 2.7,6.2 6.2,6.2 z m 2.5,5 c 1.3,-0.3 2.5,-0.8 3.6,-1.5 0.9,-0.5 1.1,-1.7 0.6,-2.5 -0.5,-0.8 -1.7,-1.1 -2.5,-0.6 -2.6,1.6 -5.8,1.6 -8.4,0 -0.9,-0.5 -2,-0.3 -2.5,0.6 -0.5,0.8 -0.3,2 0.6,2.5 1.1,0.7 2.4,1.2 3.6,1.5 l -3.5,3.5 c -0.7,0.7 -0.7,1.9 0,2.6 0.4,0.4 0.8,0.5 1.3,0.5 0.5,0 0.9,-0.2 1.3,-0.5 l 3.4,-3.4 3.4,3.4 c 0.7,0.7 1.9,0.7 2.6,0 0.7,-0.7 0.7,-1.9 0,-2.6 l -3.5,-3.5 z"
     inkscape:connector-curvature="0" /><circle
     id="Oval_6_"
     cx="23"
     cy="23"
     r="22"
     style="fill:none;stroke:#000000;stroke-width:2" /><path
     id="Shape_6_"
     d="m 13.5,19.4 3.9,0 0,13.6 -3.9,0 0,-13.6 z m 1.9,-1.7 0,0 c -1.4,0 -2.4,-1 -2.4,-2.4 0,-1.3 0.9,-2.4 2.4,-2.4 1.4,0 2.3,1 2.4,2.4 -0.1,1.4 -1,2.4 -2.4,2.4 l 0,0 z M 33,33 l -4.4,0 0,-7 c 0,-1.8 -0.7,-3.1 -2.2,-3.1 -1.2,0 -1.8,0.8 -2.1,1.7 -0.1,0.3 -0.1,0.7 -0.1,1.1 l 0,7.3 -4.4,0 c 0,0 0.1,-12.5 0,-13.6 l 4.4,0 0,2.1 c 0.3,-0.9 1.7,-2.3 3.9,-2.3 2.8,0 4.9,2 4.9,6.2 l 0,7.6 0,0 z"
     inkscape:connector-curvature="0" /><circle
     id="Oval_7_"
     cx="83"
     cy="23"
     r="22"
     style="fill:none;stroke:#000000;stroke-width:2" /><path
     id="Shape_7_"
     d="m 87,21 c 0.7,-2 1.3,-3.7 1.8,-5 0.4,-1.3 0.6,-2.1 0.6,-2.4 0,-0.3 -0.1,-0.6 -0.2,-0.7 -0.1,-0.2 -0.3,-0.3 -0.6,-0.3 -0.3,0 -0.6,0.3 -1,0.8 -0.3,0.5 -0.7,1.3 -1.1,2.5 l -1.7,4.8 2.2,0.3 0,0 z m -2.2,4.4 c -0.5,0 -0.9,-0.1 -1.4,-0.1 -0.4,-0.1 -0.8,-0.2 -1.2,-0.3 0.2,0.4 0.3,0.7 0.5,1.1 0.1,0.4 0.3,0.7 0.3,1 0.3,-0.3 0.6,-0.6 0.8,-0.9 0.4,-0.3 0.7,-0.6 1,-0.8 l 0,0 z m -1.9,-5 -1.8,-5.1 C 80.6,14 80.3,13.1 80,12.7 c -0.3,-0.4 -0.5,-0.6 -0.8,-0.6 -0.2,0 -0.4,0.1 -0.6,0.3 -0.1,0.2 -0.2,0.4 -0.2,0.7 0,0.5 0.2,1.4 0.6,2.6 0.4,1.3 1,2.9 1.8,4.9 0.1,-0.1 0.2,-0.2 0.3,-0.3 0.1,0 0.3,-0.1 0.5,-0.1 0.1,0 0.2,0 0.4,0 0.1,0.1 0.5,0.2 0.9,0.2 l 0,0 z m -1.6,8 c 0.2,0 0.4,-0.1 0.5,-0.3 0.2,-0.2 0.2,-0.4 0.2,-0.6 0,-0.2 -0.2,-0.7 -0.5,-1.5 -0.3,-0.8 -0.7,-1.5 -1.1,-2.3 -0.3,-0.5 -0.7,-1 -1,-1.2 -0.3,-0.3 -0.6,-0.4 -0.9,-0.4 -0.2,0 -0.5,0.1 -0.8,0.4 -0.3,0.3 -0.4,0.6 -0.4,0.8 0,0.3 0.1,0.7 0.4,1.2 0.3,0.5 0.7,1.1 1.1,1.7 0.5,0.6 1,1.2 1.4,1.5 0.5,0.5 0.8,0.7 1.1,0.7 l 0,0 z M 76.2,28 c 0.2,0.2 0.4,0.5 0.7,0.8 0.7,1 1.4,1.5 2,1.5 0.2,0 0.4,-0.1 0.6,-0.2 0.2,-0.1 0.3,-0.3 0.3,-0.4 0,-0.2 -0.1,-0.4 -0.3,-0.8 C 79.3,28.5 79,28.1 78.6,27.6 78.2,27 77.8,26.6 77.5,26.4 77.2,26.1 77,26 76.8,26 c -0.4,0 -0.8,0.2 -1.1,0.6 -0.3,0.4 -0.5,0.9 -0.5,1.5 0,0.5 0.1,1 0.3,1.5 0.2,0.6 0.6,1.1 1,1.7 0.7,0.9 1.5,1.5 2.5,2 1,0.5 2.1,0.7 3.2,0.7 2.2,0 4,-0.8 5.5,-2.4 1.5,-1.6 2.2,-3.6 2.2,-6 0,-0.7 -0.1,-1.3 -0.2,-1.8 -0.1,-0.4 -0.3,-0.8 -0.6,-0.9 -0.5,-0.4 -1.3,-0.7 -2.7,-1 -1.3,-0.3 -2.7,-0.4 -4.1,-0.4 -0.4,0 -0.7,0.1 -0.9,0.2 -0.2,0.1 -0.3,0.4 -0.3,0.7 0,0.7 0.4,1.3 1.3,1.6 0.8,0.3 2.2,0.5 4.1,0.5 l 0.7,0 c 0.2,0 0.3,0.1 0.4,0.2 0.1,0.1 0.2,0.3 0.2,0.5 -0.2,0.2 -0.6,0.4 -1.2,0.6 -0.6,0.2 -1,0.4 -1.4,0.7 -0.7,0.5 -1.2,1.1 -1.6,1.7 -0.4,0.7 -0.6,1.3 -0.6,1.9 0,0.4 0.1,0.8 0.3,1.3 0.2,0.5 0.3,0.8 0.3,0.9 l 0,0.1 0,0.1 c -0.5,0 -0.9,-0.3 -1.2,-0.8 C 82.1,31.2 82,30.5 82,29.6 l 0,-0.1 c -0.1,0.1 -0.2,0.1 -0.3,0.2 -0.1,0 -0.2,0 -0.3,0 -0.1,0 -0.2,0 -0.3,0 -0.1,0 -0.2,0 -0.3,-0.1 0,0.1 0.1,0.2 0.1,0.4 0,0.1 0,0.2 0,0.3 0,0.4 -0.2,0.8 -0.5,1 -0.3,0.3 -0.7,0.4 -1.2,0.4 -0.7,0 -1.4,-0.3 -2.1,-1 -0.7,-0.7 -1.1,-1.3 -1.1,-2 0,-0.1 0,-0.2 0,-0.3 0.1,-0.3 0.2,-0.4 0.2,-0.4 l 0,0 z m 12.1,-6.7 c 1,0.2 1.7,0.6 2.1,1.3 0.4,0.6 0.6,1.7 0.6,3.1 0,2.8 -0.8,5 -2.5,6.8 -1.7,1.8 -3.9,2.6 -6.5,2.6 -1,0 -2,-0.2 -3,-0.6 -1,-0.4 -1.8,-0.9 -2.5,-1.5 -0.8,-0.7 -1.4,-1.5 -1.8,-2.3 -0.4,-0.8 -0.6,-1.6 -0.6,-2.5 0,-0.9 0.2,-1.7 0.6,-2.2 0.4,-0.5 1.1,-0.9 2,-1.1 -0.2,-0.4 -0.3,-0.7 -0.4,-1 -0.1,-0.3 -0.1,-0.5 -0.1,-0.6 0,-0.5 0.3,-1 0.8,-1.5 0.5,-0.5 1,-0.8 1.5,-0.8 0.2,0 0.4,0 0.6,0.1 0.2,0.1 0.5,0.2 0.8,0.4 C 79,19.1 78.4,17.3 78,16 c -0.4,-1.3 -0.6,-2.2 -0.6,-2.7 0,-0.7 0.2,-1.2 0.5,-1.6 0.4,-0.4 0.8,-0.6 1.5,-0.6 1.1,0 2.4,2.3 4,6.9 0.3,0.8 0.5,1.4 0.6,1.8 0.1,-0.3 0.3,-0.8 0.5,-1.5 1.6,-4.6 3,-6.9 4.2,-6.9 0.6,0 1,0.2 1.4,0.6 0.3,0.4 0.5,0.9 0.5,1.5 0,0.5 -0.2,1.4 -0.6,2.7 -0.4,1.3 -1,3 -1.7,5.1 l 0,0 z"
     inkscape:connector-curvature="0" /><circle
     id="Oval_8_"
     cx="143"
     cy="23"
     r="22"
     style="fill:none;stroke:#000000;stroke-width:2" /><path
     id="Shape_8_"
     d="m 143.3,26.3 c 0.1,-0.7 0.4,-1.2 1.5,-1.1 1.4,0 4,0.3 7,-1.3 l 0,0 0,-8.6 c 0,-1.5 -0.5,-2.1 -1.8,-2.1 l -13.9,0 c -1.4,0 -1.8,0.5 -1.8,2.1 l 0,8.6 0,0 c 3,1.6 5.5,1.3 6.9,1.3 0.6,0 1,0.1 1.2,0.4 l 0.1,0.1 c 0.3,0.2 0.6,0.4 0.8,0.6 z m -0.6,1.9 c 0,1.8 0,4.4 0,4.3 0.1,4.4 -8.4,3 -5.9,-5.6 -2.3,-1 -3.8,-2.2 -4.6,-3.2 -0.4,-0.6 0,-1.3 0.7,-0.8 0.1,0.1 0.2,0.1 0.3,0.2 l 0,-8.9 c 0,-1.2 0.9,-2.2 2,-2.2 l 15.7,0 c 1.1,0 2,1 2,2.2 l 0,8.9 c 0.1,-0.1 0.2,-0.1 0.3,-0.2 0.7,-0.5 1.1,0.2 0.7,0.8 -0.8,1 -2.3,2.3 -4.6,3.2 2.5,8.6 -6,10 -5.9,5.6 0,0.1 0,-1.7 0,-3.3 0.5,0 2.5,0.1 3.5,-1.5 -0.3,0.3 -0.8,0.5 -1.3,0.7 -1.5,0.3 -1.9,0 -2.9,-0.2 z m 0,-6.7 c 0,1.4 -1.2,2.6 -2.7,2.6 -1.5,0 -2.7,-1.2 -2.7,-2.6 0,-1.4 1.2,-2.6 2.7,-2.6 1.5,0 2.7,1.2 2.7,2.6 z m 0.9,0 c 0,1.4 1.2,2.6 2.7,2.6 1.5,0 2.7,-1.2 2.7,-2.6 0,-1.4 -1.2,-2.6 -2.7,-2.6 -1.5,0 -2.7,1.2 -2.7,2.6 z"
     inkscape:connector-curvature="0" /><circle
     id="Oval_9_"
     cx="203"
     cy="23"
     r="22"
     style="fill:none;stroke:#000000;stroke-width:2" /><path
     id="Shape_9_"
     d="m 203,12 c -6.1,0 -11,4.9 -11,11 0,6.1 4.9,11 11,11 6.1,0 11,-4.9 11,-11 0,-6.1 -4.9,-11 -11,-11 l 0,0 z m 6.7,12.7 c -0.8,3.1 -3.6,5.2 -6.7,5.2 -3.2,0 -5.9,-2.1 -6.7,-5.2 -0.1,-0.5 0.2,-1.1 0.7,-1.2 0.1,0 0.2,0 0.2,0 0.4,0 0.8,0.3 0.9,0.7 0.6,2.2 2.6,3.7 4.8,3.7 2.3,0 4.3,-1.5 4.8,-3.7 0.1,-0.4 0.5,-0.7 0.9,-0.7 0.1,0 0.2,0 0.2,0 0.3,0.1 0.5,0.2 0.6,0.4 0.3,0.3 0.4,0.5 0.3,0.8 l 0,0 0,0 z"
     inkscape:connector-curvature="0" /><circle
     id="Oval_10_"
     cx="-217"
     cy="83"
     r="22"
     style="fill:none;stroke:#000000;stroke-width:2" /><path
     id="Shape_10_"
     d="m -211.1,87.5 c -2.7,3.7 -5,5.5 -6.9,5.5 -1.2,0 -2.2,-1.1 -3,-3.4 -0.5,-2.1 -1.1,-4.1 -1.6,-6.2 -0.6,-2.2 -1.2,-3.4 -1.9,-3.4 -0.1,0 -0.7,0.3 -1.6,1 l -0.9,-1.3 c 1,-0.9 2,-1.8 2.9,-2.7 1.3,-1.2 2.3,-1.8 3,-1.9 1.6,-0.2 2.5,1 2.9,3.3 0.4,2.6 0.7,4.1 0.8,4.8 0.4,2.1 0.9,3.2 1.5,3.2 0.4,0 1,-0.7 1.9,-2.1 0.8,-1.4 1.3,-2.4 1.3,-3.1 0.1,-1.2 -0.3,-1.8 -1.3,-1.8 -0.5,0 -1,0.1 -1.5,0.3 1,-3.3 2.9,-5 5.6,-4.9 2.1,0.1 3,1.4 2.9,4.2 -0.1,2.2 -1.5,5 -4.1,8.5 z"
     inkscape:connector-curvature="0" /><circle
     id="Oval_11_"
     cx="-337"
     cy="83"
     r="22"
     style="fill:none;stroke:#000000;stroke-width:2" /><path
     id="Shape_11_"
     d="m -343.1,89 0,-4.1 0.8,0 0.8,0 0,-0.6 0,-0.6 -2.2,0 -2.2,0 0,0.6 0,0.6 0.7,0 0.7,0 0,4 c 0,2.2 0,4 0,4.1 0,0 0.2,0 0.7,0 l 0.7,0 0,-4 z m 12.6,-0.3 c 0,-0.1 0,-1 0.1,-1.2 0.1,-0.3 0.3,-0.5 0.6,-0.5 0.3,0 0.4,0.1 0.5,0.3 0.1,0.1 0.1,0.2 0.1,0.8 l 0,0.6 -0.7,0 c -0.5,0.1 -0.6,0.1 -0.6,0 l 0,0 z m 1.2,4.4 c 0.6,-0.2 1.1,-0.6 1.2,-1.2 0,-0.1 0.1,-0.4 0.1,-0.7 l 0,-0.5 -0.6,0 -0.6,0 0,0.4 c 0,0.5 -0.1,0.6 -0.2,0.8 -0.2,0.2 -0.5,0.2 -0.8,0 -0.3,-0.2 -0.3,-0.5 -0.3,-1.5 l 0,-0.7 1.3,0 1.3,0 0,-1 c 0,-1.2 0,-1.3 -0.2,-1.8 -0.4,-0.8 -1.4,-1.2 -2.3,-0.9 -0.6,0.2 -1,0.7 -1.2,1.3 -0.1,0.2 -0.1,0.4 -0.1,2.1 0,2.1 0,2.2 0.2,2.6 0.4,0.9 1.4,1.3 2.2,1.1 l 0,0 z m -5,-1.2 c 0.1,-0.1 0.1,-0.1 0.2,-0.2 0.1,-0.2 0.1,-0.3 0,-2.1 0,-1.9 0,-2 -0.1,-2.1 -0.2,-0.3 -0.5,-0.3 -0.9,-0.1 l -0.1,0.1 0,2.1 0,2.1 0.1,0.1 c 0.3,0.2 0.6,0.2 0.8,0.1 l 0,0 z m 0.8,1.2 c 0.2,-0.1 0.4,-0.3 0.5,-0.5 0.2,-0.5 0.2,-0.5 0.2,-3 0,-2.1 0,-2.3 -0.1,-2.6 -0.2,-0.7 -0.5,-1 -1.1,-1 -0.3,0 -0.6,0.2 -0.9,0.5 -0.1,0.1 -0.3,0.2 -0.3,0.2 0,0 0,-0.7 0,-1.5 l 0,-1.5 -0.6,0 -0.6,0 0,4.7 0,4.7 0.6,0 0.6,0 0,-0.3 c 0,-0.2 0,-0.3 0,-0.3 0,0 0.2,0.1 0.3,0.2 0.5,0.4 0.9,0.6 1.4,0.4 l 0,0 z m -6.4,0 c 0.2,-0.1 0.5,-0.3 0.8,-0.5 0.1,-0.1 0.2,-0.2 0.2,-0.2 0,0 0,0.1 0,0.4 l 0,0.4 0.6,0 0.6,0 0,-3.5 0,-3.5 -0.6,0 -0.6,0 0,2.7 0,2.7 -0.3,0.3 c -0.2,0.2 -0.3,0.3 -0.4,0.3 -0.2,0.1 -0.3,0 -0.4,-0.1 -0.1,-0.1 -0.1,-0.2 -0.1,-3 l 0,-2.8 -0.6,0 -0.6,0 0,3 c 0,3.3 0,3.4 0.2,3.7 0.2,0.2 0.7,0.3 1.2,0.1 l 0,0 z m 0.5,2.9 c -0.8,0 -1.7,0 -2,0 -2.3,-0.1 -3.9,-0.2 -4.3,-0.2 -0.5,-0.1 -1,-0.4 -1.3,-0.8 -0.5,-0.6 -0.7,-1.3 -0.8,-2.4 -0.3,-2.5 -0.3,-5.5 0,-7.9 0.1,-1.1 0.5,-1.8 1,-2.4 0.3,-0.3 0.6,-0.5 1,-0.6 0.9,-0.2 7.6,-0.4 11.6,-0.3 2.4,0.1 4.9,0.2 5.6,0.2 0.9,0.1 1.5,0.6 1.9,1.4 0.3,0.7 0.4,1.2 0.6,2.7 0.1,1.2 0.1,2 0.1,3.4 0,1.7 -0.1,3.2 -0.3,4.1 -0.2,0.9 -0.6,1.7 -1.1,2.1 -0.4,0.3 -0.8,0.5 -1.5,0.5 -0.2,0 -0.5,0 -0.6,0 -0.4,0 -2.5,0.1 -3.6,0.1 -1.7,0.1 -4.7,0.1 -6.3,0.1 z m -2.1,-15.5 c 0,0 0,-2.8 0,-3.2 0,-0.5 0,-0.9 -0.4,-1.9 -0.1,-0.3 -0.3,-1 -0.5,-1.4 -1,-3.2 -1,-3 -0.9,-3 0.7,0 1.5,0 1.5,0 0,0 0.2,0.8 0.5,1.7 0.3,1 0.5,1.7 0.5,1.8 0,0 0.2,-0.5 0.3,-1.2 0.4,-1.5 0.6,-2.3 0.6,-2.3 0,0 0.2,0 0.8,0 l 0.7,0 0,0.1 c 0,0.1 -0.5,1.6 -1,3.2 -0.1,0.2 -0.2,0.6 -0.3,1 -0.1,0.4 -0.2,0.8 -0.3,1 l -0.1,0.3 0,1.9 c 0,1.8 0,1.9 -0.1,1.9 0,0.2 -1.3,0.1 -1.3,0.1 z m 8.8,0.1 c -0.3,0 -0.5,-0.2 -0.7,-0.4 -0.2,-0.3 -0.2,-0.3 -0.2,-3.7 l 0,-3.1 0.7,0 0.7,0 0,2.9 c 0,3.1 0,3 0.2,3.1 0.2,0 0.4,0 0.6,-0.3 l 0.2,-0.2 0,-2.7 0,-2.7 0.7,0 0.7,0 0,3.5 0,3.5 -0.1,0 c -0.1,0 -1.1,0 -1.2,0 0,0 -0.1,-0.1 -0.1,-0.3 l 0,-0.3 -0.2,0.2 c -0.4,0.4 -0.9,0.6 -1.3,0.5 l 0,0 z m -3.4,-1.3 c 0.2,-0.2 0.2,-0.2 0.2,-2.2 0,-1.6 0,-1.8 0,-2 -0.1,-0.3 -0.2,-0.4 -0.4,-0.5 -0.3,-0.1 -0.5,0.1 -0.6,0.4 -0.1,0.2 -0.1,3.8 0,4 0.1,0.2 0.2,0.4 0.3,0.4 0.2,0 0.4,-0.1 0.5,-0.1 l 0,0 z m -0.6,1.3 c -0.6,-0.1 -1.2,-0.4 -1.4,-0.9 -0.3,-0.5 -0.3,-0.8 -0.3,-2.9 0,-1.7 0,-1.8 0.1,-2 0.2,-0.6 0.5,-1 0.9,-1.2 0.7,-0.3 1.4,-0.3 2,0.1 0.4,0.3 0.6,0.6 0.8,1.2 0.1,0.2 0.1,0.4 0.1,2.1 0,2.1 0,2.2 -0.2,2.6 -0.2,0.4 -0.7,0.8 -1.1,0.9 -0.3,0.1 -0.7,0.1 -0.9,0.1 l 0,0 z"
     inkscape:connector-curvature="0" /><circle
     id="Oval_12_"
     cx="-277"
     cy="83"
     r="22"
     style="fill:none;stroke:#000000;stroke-width:2" /><path
     id="Shape_12_"
     d="m -267,86.6 0,-7.1 c 0,0 0,-3.4 -3.4,-3.4 l -13.1,0 c 0,0 -3.4,0 -3.4,3.4 l 0,7.1 c 0,0 0,3.4 3.4,3.4 l 13.1,0 c 0,0 3.4,0 3.4,-3.4 m -6.1,-3.6 -6.5,3.8 0,-7.7 6.5,3.9"
     inkscape:connector-curvature="0" /><circle
     id="Oval_13_"
     cx="-157"
     cy="83"
     r="22"
     style="fill:none;stroke:#000000;stroke-width:2" /><path
     id="Shape_13_"
     d="m -160.3,97 c 0,0 0,-4.5 0,-5.5 0,-0.9 -0.2,-1.5 -2.1,-3.2 -0.5,-0.7 -1.5,-2.4 -1.4,-3.6 0.1,-0.8 1.1,-2 1.4,-2.9 0,-0.9 -1.2,-3.4 -1.3,-4 -0.4,-1.6 -1.3,-5.1 -1.3,-5.3 0.1,-2 1.7,-1.7 2.1,-0.8 0.3,0.8 0.8,2.5 1.2,3.9 0.3,1.1 1,2.4 1.4,3.3 0.2,0.5 0.4,0.4 0.6,0 0.2,-0.4 0.6,-1.2 1.6,-1.2 1,0 1.3,1.1 1.3,1.5 0,0.4 0.5,0.3 0.6,0 0.1,-0.3 0.4,-1.3 1.4,-1.2 1,0.1 1.2,0.9 1.3,1.5 0.2,0.7 0.6,0 0.6,0 0,0 0.4,-0.8 0.7,-1.6 0.3,-0.8 0.5,-2.2 1.1,-4 0.6,-2 2.1,-1.1 2.1,0.3 -0.1,1 -1.5,7.1 -1.6,7.7 -0.1,0.6 -0.7,4.8 -0.9,5.6 -0.2,0.7 -0.9,2 -1.4,3.8 l 0,5.8 -7.4,0"
     inkscape:connector-curvature="0" /><circle
     id="Oval_14_"
     cx="-97"
     cy="83"
     r="22"
     style="fill:none;stroke:#000000;stroke-width:2" /><path
     id="Shape_14_"
     d="m -87,77.4 -0.8,0 c -0.3,0 -0.7,0.4 -0.7,0.7 l 0,9.9 c 0,0.3 0.4,0.6 0.7,0.6 l 0.8,0 0,2.4 -7.2,0 0,-2.4 1.5,0 0,-10.4 -0.1,0 -3.5,12.8 -2.7,0 -3.5,-12.8 -0.1,0 0,10.4 1.5,0 0,2.4 -6,0 0,-2.4 0.8,0 c 0.3,0 0.7,-0.4 0.7,-0.6 l 0,-9.9 c 0,-0.3 -0.4,-0.7 -0.7,-0.7 l -0.7,0 0,-2.4 7.5,0 2.5,9.3 0.1,0 2.5,-9.3 7.5,0 0,2.4"
     inkscape:connector-curvature="0" /><circle
     id="Oval_15_"
     cx="-37"
     cy="83"
     r="22"
     style="fill:none;stroke:#000000;stroke-width:2" /><path
     id="Shape_15_"
     d="m -27.3,77.7 c 0,0.4 0.1,0.7 0.1,1.1 0,1.1 -0.2,2.4 -0.8,3.9 l -3.4,9.7 c 3.3,-1.9 5.5,-5.4 5.5,-9.5 -0.1,-1.8 -0.6,-3.6 -1.4,-5.2 l 0,0 z m -9.5,6.3 -3.3,9.6 c 1,0.3 2,0.4 3.1,0.4 1.3,0 2.5,-0.2 3.7,-0.6 0,0 -0.1,-0.1 -0.1,-0.2 l -3.4,-9.2 0,0 z m 7.2,-1.6 c 0,-1.4 -0.5,-2.3 -0.9,-3 -0.6,-0.9 -1.1,-1.7 -1.1,-2.6 0,-1 0.8,-2 1.8,-2 l 0.1,0 c -2,-1.8 -4.6,-2.9 -7.4,-2.9 -3.8,0 -7.2,2 -9.2,5 0.3,0 0.5,0 0.7,0 1.2,0 2.9,-0.1 2.9,-0.1 0.6,0 0.7,0.8 0.1,0.9 0,0 -0.6,0.1 -1.3,0.1 l 4,11.9 2.4,-7.2 -1.7,-4.7 c -0.6,0 -1.2,-0.1 -1.2,-0.1 -0.6,0 -0.5,-0.9 0.1,-0.9 0,0 1.8,0.1 2.9,0.1 1.1,0 2.9,-0.1 2.9,-0.1 0.6,0 0.7,0.8 0.1,0.9 0,0 -0.6,0.1 -1.3,0.1 l 4,11.8 1.1,-3.7 c 0.7,-1.3 1,-2.5 1,-3.5 l 0,0 z M -48,83 c 0,4.4 2.5,8.1 6.2,9.9 L -47,78.5 c -0.7,1.4 -1,2.9 -1,4.5 l 0,0 z"
     inkscape:connector-curvature="0" /><circle
     id="Oval_16_"
     cx="23"
     cy="83"
     r="22"
     style="fill:none;stroke:#000000;stroke-width:2" /><path
     id="Shape_16_"
     d="m 23.5,72 0,5.3 5.1,0 0,3.3 -5.1,0 0,5.3 c 0,1.2 0.1,2 0.2,2.3 0.1,0.3 0.4,0.6 0.7,0.8 0.5,0.3 1,0.4 1.6,0.4 1.1,0 2.2,-0.3 3.3,-1 l 0,3.3 c -0.9,0.4 -1.8,0.7 -2.5,0.9 -0.8,0.2 -1.6,0.3 -2.4,0.3 -1,0 -1.9,-0.1 -2.6,-0.4 -0.8,-0.2 -1.4,-0.6 -1.9,-1 -0.5,-0.4 -0.9,-0.9 -1.1,-1.4 -0.2,-0.5 -0.3,-1.2 -0.3,-2.2 l 0,-7.3 -2.5,0 0,-2.9 c 0.9,-0.3 1.6,-0.6 2.2,-1.1 0.6,-0.5 1.1,-1.1 1.5,-1.8 0.4,-0.7 0.6,-1.6 0.8,-2.6 l 3,0"
     inkscape:connector-curvature="0" /><circle
     id="Oval_17_"
     cx="83"
     cy="83"
     r="22"
     style="fill:none;stroke:#000000;stroke-width:2" /><path
     id="Shape_17_"
     d="M 73.4,79.3 71,76.9 c 1.1,-2.6 3.2,-4.7 5.8,-5.9 l 0,0 2.5,2.5 c 1.4,-0.6 2.9,-0.9 4.5,-0.9 6.2,0 11.2,5 11.2,11.2 C 95,90 90,95 83.8,95 77.6,95 72.6,90 72.6,83.8 c -0.1,-1.6 0.3,-3.1 0.8,-4.5 l 0,0 9.1,9.1 c 1.1,-2.6 3.2,-4.7 5.8,-5.9 l 0,0 -9.1,-9.1 0,0 c -2.6,1.2 -4.7,3.2 -5.8,5.9 l 0,0 z M 89,85.6 c -1.5,0.7 -2.7,1.9 -3.4,3.4 l 4.3,0.9 -0.9,-4.3 z"
     inkscape:connector-curvature="0" /><circle
     id="Oval_18_"
     cx="143"
     cy="83"
     r="22"
     style="fill:none;stroke:#000000;stroke-width:2" /><path
     id="Shape_18_"
     d="m 134,73 0,3.6 c 8.5,0 15.3,6.9 15.4,15.4 l 3.6,0 C 153,86.8 150.9,82 147.4,78.6 144,75.1 139.2,73 134,73 l 0,0 z m 0,6.5 0,3.6 c 2.4,0 4.6,0.9 6.3,2.6 1.7,1.7 2.6,3.9 2.6,6.3 l 0,0 3.6,0 c 0,-3.5 -1.4,-6.6 -3.7,-8.9 -2.3,-2.3 -5.3,-3.6 -8.8,-3.6 l 0,0 z m 0.7,11.7 0,0 0,0 0,0 0,0 z m 3.6,-3.5 c 0.5,0.5 0.7,1.1 0.7,1.8 0,0.7 -0.3,1.3 -0.7,1.8 l 0,0 c -0.5,0.5 -1.1,0.7 -1.8,0.7 -0.7,0 -1.3,-0.3 -1.8,-0.7 -0.5,-0.5 -0.7,-1.1 -0.7,-1.8 0,-0.7 0.3,-1.3 0.7,-1.8 0.5,-0.5 1.1,-0.7 1.8,-0.7 0.7,-0.1 1.3,0.2 1.8,0.7 l 0,0 z"
     inkscape:connector-curvature="0" /><circle
     id="Oval_19_"
     cx="203"
     cy="83"
     r="22"
     style="fill:none;stroke:#000000;stroke-width:2" /><path
     id="Shape_19_"
     d="m 207.2,76 c -0.4,0 -0.8,0.1 -1.3,0.2 -0.4,0.1 -0.8,0.4 -1.2,0.6 -0.4,0.3 -0.7,0.5 -1,0.7 -0.3,0.2 -0.5,0.5 -0.8,0.7 -0.2,-0.2 -0.5,-0.5 -0.8,-0.7 -0.3,-0.2 -0.6,-0.5 -1,-0.7 -0.4,-0.3 -0.8,-0.5 -1.2,-0.6 -0.4,-0.1 -0.9,-0.2 -1.3,-0.2 -1.5,0 -2.7,0.4 -3.5,1.3 -0.9,0.9 -1.3,2.1 -1.3,3.6 0,0.5 0.1,0.9 0.2,1.4 0.2,0.5 0.3,0.9 0.5,1.3 0.2,0.3 0.4,0.7 0.7,1 0.3,0.3 0.4,0.6 0.6,0.7 0.1,0.1 0.2,0.2 0.3,0.3 l 6.3,6.3 c 0.1,0.1 0.3,0.2 0.4,0.2 0.1,0 0.3,-0.1 0.4,-0.2 l 6.3,-6.3 c 1.5,-1.6 2.3,-3.2 2.3,-4.7 0,-1.5 -0.4,-2.7 -1.3,-3.6 -0.6,-0.9 -1.8,-1.3 -3.3,-1.3 z"
     inkscape:connector-curvature="0" /><circle
     id="Oval_20_"
     cx="-337"
     cy="143"
     r="22"
     style="fill:none;stroke:#000000;stroke-width:2" /><path
     id="Shape_20_"
     d="m -325.7,145.5 c 0.2,-0.8 0.3,-1.6 0.3,-2.4 0,-6.2 -5.1,-11.3 -11.4,-11.3 -0.7,0 -1.3,0.1 -2,0.2 -1,-0.6 -2.2,-1 -3.5,-1 -3.7,0 -6.6,2.9 -6.6,6.5 0,1.2 0.3,2.3 0.9,3.3 -0.2,0.7 -0.2,1.5 -0.2,2.3 0,6.2 5.1,11.3 11.4,11.3 0.7,0 1.4,-0.1 2.1,-0.2 0.9,0.5 2,0.8 3.1,0.8 3.7,0 6.6,-2.9 6.6,-6.5 0,-1.1 -0.2,-2.1 -0.7,-3 l 0,0 z m -5.4,3 c -0.5,0.7 -1.3,1.3 -2.3,1.7 -1,0.4 -2.2,0.6 -3.6,0.6 -1.6,0 -3,-0.3 -4.1,-0.8 -0.8,-0.4 -1.4,-1 -1.9,-1.7 -0.5,-0.7 -0.7,-1.4 -0.7,-2 0,-0.4 0.2,-0.8 0.5,-1.1 0.3,-0.3 0.7,-0.4 1.2,-0.4 0.4,0 0.7,0.1 1,0.3 0.3,0.2 0.5,0.5 0.7,1 0.2,0.5 0.4,0.8 0.7,1.1 0.2,0.3 0.5,0.5 1,0.7 0.4,0.2 1,0.3 1.7,0.3 0.9,0 1.7,-0.2 2.3,-0.6 0.6,-0.4 0.8,-0.8 0.8,-1.4 0,-0.4 -0.1,-0.8 -0.4,-1.1 -0.3,-0.3 -0.7,-0.5 -1.2,-0.7 -0.5,-0.2 -1.2,-0.3 -2.1,-0.5 -1.2,-0.3 -2.2,-0.5 -3,-0.9 -0.8,-0.3 -1.5,-0.8 -2,-1.4 -0.5,-0.6 -0.7,-1.4 -0.7,-2.3 0,-0.9 0.3,-1.6 0.8,-2.3 0.5,-0.7 1.3,-1.2 2.2,-1.5 1,-0.3 2.1,-0.5 3.4,-0.5 1,0 1.9,0.1 2.7,0.3 0.8,0.2 1.4,0.5 1.9,0.9 0.5,0.4 0.9,0.8 1.1,1.2 0.2,0.4 0.4,0.9 0.4,1.3 0,0.4 -0.2,0.8 -0.5,1.1 -0.3,0.3 -0.7,0.5 -1.2,0.5 -0.4,0 -0.8,-0.1 -1,-0.3 -0.2,-0.2 -0.4,-0.5 -0.7,-0.9 -0.3,-0.5 -0.6,-1 -1,-1.3 -0.4,-0.3 -1,-0.4 -1.9,-0.4 -0.8,0 -1.5,0.2 -2,0.5 -0.5,0.3 -0.7,0.7 -0.7,1.1 0,0.3 0.1,0.5 0.2,0.7 0.2,0.2 0.4,0.4 0.7,0.5 0.3,0.2 0.6,0.3 0.9,0.4 0.3,0.1 0.9,0.2 1.6,0.4 0.9,0.2 1.8,0.4 2.5,0.7 0.8,0.2 1.4,0.5 2,0.9 0.5,0.4 1,0.8 1.3,1.3 0.3,0.5 0.5,1.2 0.5,2 -0.3,1 -0.6,1.8 -1.1,2.6 l 0,0 z"
     inkscape:connector-curvature="0" /><circle
     id="Oval_21_"
     cx="-277"
     cy="143"
     r="22"
     style="fill:none;stroke:#000000;stroke-width:2" /><path
     id="Shape_21_"
     d="m -271.9,145.2 c -1.5,1.5 -1.5,2.9 -2.9,2.9 -1.5,0 -2.9,-1.5 -4.4,-2.9 -1.5,-1.5 -2.9,-2.9 -2.9,-4.4 0,-1.5 1.5,-1.5 2.9,-2.9 1.5,-1.5 -2.9,-5.9 -4.4,-5.9 -1.5,0 -4.4,4.4 -4.4,4.4 0,2.9 3,8.9 5.9,11.7 2.9,2.9 8.8,5.9 11.7,5.9 0,0 4.4,-2.9 4.4,-4.4 0,-1.5 -4.4,-5.9 -5.9,-4.4"
     inkscape:connector-curvature="0" /><circle
     id="Oval_22_"
     cx="-217"
     cy="143"
     r="22"
     style="fill:none;stroke:#000000;stroke-width:2" /><path
     id="Shape_22_"
     d="m -225.9,139.9 c 0.3,0.2 1.1,0.7 2.5,1.6 1.4,0.9 2.5,1.6 3.2,2.1 0.1,0.1 0.3,0.2 0.5,0.3 0.3,0.2 0.5,0.3 0.7,0.4 0.2,0.1 0.4,0.2 0.6,0.4 0.2,0.1 0.5,0.2 0.7,0.3 0.2,0.1 0.4,0.1 0.6,0.1 l 0,0 0,0 c 0.2,0 0.4,0 0.6,-0.1 0.2,-0.1 0.5,-0.2 0.7,-0.3 0.2,-0.1 0.5,-0.3 0.6,-0.4 0.2,-0.1 0.4,-0.3 0.7,-0.4 0.3,-0.2 0.4,-0.3 0.5,-0.3 0.8,-0.5 2.7,-1.7 5.7,-3.7 0.6,-0.4 1.1,-0.9 1.5,-1.4 0.4,-0.5 0.6,-1.1 0.6,-1.7 0,-0.5 -0.2,-0.9 -0.6,-1.3 -0.4,-0.4 -0.8,-0.5 -1.4,-0.5 l -17.8,0 c -0.6,0 -1.1,0.2 -1.5,0.6 -0.3,0.4 -0.5,0.9 -0.5,1.5 0,0.5 0.2,1 0.7,1.6 0.4,0.5 0.9,0.9 1.4,1.2 z m 18.7,1.2 c -2.7,1.7 -4.7,3 -6.1,3.9 -0.5,0.3 -0.8,0.6 -1.1,0.7 -0.3,0.2 -0.7,0.4 -1.2,0.5 -0.5,0.2 -0.9,0.3 -1.4,0.3 l 0,0 0,0 c -0.4,0 -0.9,-0.1 -1.4,-0.3 -0.5,-0.2 -0.9,-0.4 -1.2,-0.5 -0.3,-0.2 -0.7,-0.4 -1.1,-0.7 -1.1,-0.7 -3.1,-2.1 -6.1,-3.9 -0.5,-0.3 -0.9,-0.6 -1.2,-1 l 0,9 c 0,0.5 0.2,0.9 0.6,1.3 0.4,0.4 0.8,0.5 1.4,0.5 l 18,0 c 0.5,0 1,-0.2 1.4,-0.5 0.4,-0.4 0.6,-0.8 0.6,-1.3 l 0,-9 c -0.4,0.4 -0.8,0.8 -1.2,1 z"
     inkscape:connector-curvature="0" /><circle
     id="Oval_23_"
     cx="-157"
     cy="143"
     r="22"
     style="fill:none;stroke:#000000;stroke-width:2" /><path
     id="Shape_23_"
     d="m -165,138.8 c 0,4.3 8,16.2 8,16.2 0,0 8,-11.9 8,-16.2 0,-4.3 -3.6,-7.8 -8,-7.8 -4.4,0 -8,3.5 -8,7.8 l 0,0 z m 2.9,0.2 c 0,-2.7 2.4,-5 5.1,-5 2.7,0 5.1,2.4 5.1,5 0,2.7 -2.4,5.5 -5.1,5.5 -2.7,0 -5.1,-2.9 -5.1,-5.5 l 0,0 z"
     inkscape:connector-curvature="0" /><circle
     id="Oval_24_"
     cx="-97"
     cy="143"
     r="22"
     style="fill:none;stroke:#000000;stroke-width:2" /><path
     id="Shape_24_"
     d="m -86,150.3 c -0.2,1.1 -2.6,4.1 -3.7,4.5 -0.4,0.1 -0.7,0.1 -1,-0.1 -0.2,-0.1 -0.4,-0.4 -3,-4.5 l -0.8,-1.2 c -0.3,-0.4 -0.2,-1 0.1,-1.4 0.4,-0.4 0.9,-0.6 1.3,-0.4 l 1.9,0.6 c 4.3,1.4 4.5,1.4 4.7,1.6 0.4,0.2 0.5,0.5 0.5,0.9 z m -8.7,-6.1 c -0.3,-0.5 -0.3,-1 0,-1.4 l 1.2,-1.6 c 2.6,-3.5 2.8,-3.7 3,-3.8 0.3,-0.2 0.7,-0.2 1,0 1,0.5 3.2,3.5 3.3,4.7 l 0,0 c 0,0.4 -0.1,0.7 -0.4,0.9 -0.2,0.1 -0.4,0.2 -5.3,1.3 -0.8,0.2 -1.2,0.3 -1.5,0.4 l 0,0 c -0.4,0.2 -1,-0.1 -1.3,-0.5 z m -3,-1.8 c -0.2,0.1 -1,0.3 -1.8,-1.1 0,0 -5.9,-9.1 -6.1,-9.4 -0.1,-0.3 0,-0.7 0.3,-1 0.9,-0.9 5.7,-2.2 6.9,-1.9 0.4,0.1 0.7,0.4 0.8,0.7 0.1,0.4 0.7,8.8 0.7,10.7 0.1,1.7 -0.6,1.9 -0.8,2 z m 0.8,9.2 c 0,4.4 0,4.6 -0.1,4.8 -0.1,0.3 -0.4,0.5 -0.8,0.6 -1.2,0.2 -4.8,-1.1 -5.5,-2 -0.2,-0.2 -0.2,-0.4 -0.3,-0.6 0,-0.1 0,-0.3 0.1,-0.4 0.1,-0.2 0.2,-0.4 3.5,-4.1 l 1,-1.1 c 0.3,-0.4 0.9,-0.5 1.4,-0.3 0.5,0.2 0.8,0.6 0.8,1.1 -0.1,0 -0.1,2 -0.1,2 z m -9.9,-2.8 c -0.4,0 -0.7,-0.2 -0.9,-0.6 -0.1,-0.3 -0.2,-0.7 -0.3,-1.2 -0.2,-1.5 0,-3.8 0.5,-4.5 0.2,-0.3 0.5,-0.5 0.9,-0.5 0.2,0 0.4,0.1 5.1,1.9 l 1.4,0.5 c 0.5,0.2 0.8,0.7 0.8,1.2 0,0.5 -0.4,1 -0.8,1.1 l -1.9,0.6 c -4.4,1.4 -4.6,1.5 -4.8,1.5 z"
     inkscape:connector-curvature="0" /><circle
     id="Oval_25_"
     cx="-37"
     cy="143"
     r="22"
     style="fill:none;stroke:#000000;stroke-width:2" /><path
     id="Shape_25_"
     d="m -30.7,136.2 -0.5,2.6 c -0.1,0.3 -0.4,0.6 -0.7,0.6 l -4.6,0 c -0.5,0 -0.9,0.4 -0.9,0.9 l 0,0.6 c 0,0.5 0.4,0.9 0.9,0.9 l 3.9,0 c 0.4,0 0.7,0.4 0.7,0.8 -0.1,0.4 -0.5,2.3 -0.5,2.5 0,0.2 -0.3,0.6 -0.7,0.6 l -3.2,0 c -0.6,0 -0.8,0.1 -1.2,0.6 -0.4,0.5 -3.9,4.6 -3.9,4.6 l -0.1,0 0,-14.5 c 0,-0.3 0.3,-0.7 0.7,-0.7 l 9.6,0 c 0.3,-0.3 0.6,0.1 0.5,0.5 l 0,0 z m 0.5,10 c 0.1,-0.5 1.6,-8.1 2.1,-10.4 l -2.1,10.4 z M -41.9,133 c -1.6,0 -2.1,1.2 -2.1,2 l 0,18.6 c 0,0.9 0.5,1.2 0.7,1.3 0.3,0.1 1,0.2 1.4,-0.3 0,0 5.6,-6.4 5.7,-6.5 0.1,-0.1 0.1,-0.1 0.3,-0.1 l 3.6,0 c 1.5,0 1.8,-1.1 1.9,-1.7 0.1,-0.5 1.6,-8.1 2.1,-10.4 0.4,-1.8 -0.1,-2.8 -1.8,-2.8 l -11.8,0 0,-0.1 z"
     inkscape:connector-curvature="0" /><circle
     id="Oval_26_"
     cx="23"
     cy="143"
     r="22"
     style="fill:none;stroke:#000000;stroke-width:2" /><path
     id="Shape_26_"
     d="m 20.9,150.4 c -0.6,-1.4 -0.9,-2.8 -1,-4.3 -1,1.5 -1.7,3 -2.2,4.2 0,0.1 -0.4,0.9 -0.5,1.2 -0.1,0.3 0,0.7 0.4,0.9 0.3,0.1 1.2,0.4 1.2,0.5 1.1,0.4 2.7,0.9 4.5,1.1 -1,-1.1 -1.8,-2.3 -2.4,-3.6 z m 2.3,-11.1 c -3.4,-7 -10.9,-6.8 -12.1,-3.6 -0.9,2.4 3.1,8.2 12.2,4 l 0,0 c 0,-0.1 -0.1,-0.3 -0.1,-0.4 z m 1.6,-0.5 c -1.9,-4.7 1.4,-7.4 3.2,-6.7 1.3,0.5 2.1,4.6 -3.1,6.9 l 0,0 c 0,0 -0.1,-0.1 -0.1,-0.2 z m 9.6,5.4 c -0.8,-1.8 -2.2,-3.1 -3.9,-3.7 -0.2,-0.1 -0.3,-0.1 -0.5,-0.1 -0.9,0 -1.7,0.7 -1.8,1.7 -0.1,1.5 0.2,3.1 0.8,4.6 0.6,1.5 1.6,2.7 2.8,3.7 0.3,0.2 0.7,0.4 1.1,0.4 0.7,0 1.4,-0.4 1.6,-1 0.7,-1.8 0.7,-3.8 -0.1,-5.6 z m -3.9,7.9 c -1.4,-1.1 -2.6,-2.6 -3.4,-4.5 -0.8,-1.9 -1.2,-3.8 -1,-5.7 0,-0.5 0.2,-1 0.4,-1.5 l -0.1,0 c -0.8,0.2 -1.5,0.5 -2.2,1 -0.9,0.6 -1.8,1.6 -2.1,2.7 -0.1,0.3 -0.2,0.6 -0.2,0.9 -0.1,1.5 0.1,3.1 0.8,4.5 0.6,1.4 1.6,2.6 2.7,3.5 0.7,0.6 1.9,0.9 2.9,0.9 0.9,0 1.9,-0.3 2.7,-0.7 0.3,-0.1 0.8,-0.5 0.9,-0.5 -0.5,-0.1 -1,-0.3 -1.4,-0.6 z"
     inkscape:connector-curvature="0" /><circle
     id="Oval-"
     cx="83"
     cy="143"
     r="22"
     style="fill:none;stroke:#000000;stroke-width:2" /><path
     id="Shape_27_"
     d="m 89.8,143 c -0.6,0 -1.1,0.6 -1.1,1.2 0,0.7 0.5,1.2 1.1,1.2 0.6,0 1.1,-0.6 1.1,-1.2 0,-0.6 -0.5,-1.2 -1.1,-1.2 z m -13.7,-2.4 c -1.9,0 -3.4,1.6 -3.4,3.7 0,2 1.5,3.7 3.4,3.7 1.9,0 3.4,-1.6 3.4,-3.7 -0.1,-2.1 -1.6,-3.7 -3.4,-3.7 z m 0,6.2 c -1.3,0 -2.3,-1.1 -2.3,-2.5 0,-1.4 1,-2.5 2.3,-2.5 1.3,0 2.3,1.1 2.3,2.5 0,1.4 -1,2.5 -2.3,2.5 l 0,0 z m 20.9,-10 -4.6,0 C 90,135.1 86.8,134 83.1,134 c -3.7,0 -7.1,1.1 -9.5,2.8 l -4.4,0 c 0.7,0.9 1.2,2.2 1.4,3 -0.8,1.2 -1.3,2.8 -1.3,4.4 0,4.2 3.1,7.6 6.9,7.6 2.2,0 4.1,-1.1 5.4,-2.8 0.5,0.7 1.4,2 1.5,2.4 0,0 1,-1.6 1.6,-2.4 1.3,1.7 3.2,2.8 5.4,2.8 3.8,0 6.9,-3.4 6.9,-7.6 0,-1.7 -0.5,-3.2 -1.3,-4.4 0,-0.8 0.5,-2.1 1.3,-3 l 0,0 z m -20.8,13.6 c -3.1,0 -5.6,-2.7 -5.6,-6.1 0,-3.4 2.5,-6.1 5.6,-6.1 3.1,0 5.6,2.7 5.6,6.1 -0.1,3.4 -2.6,6.1 -5.6,6.1 l 0,0 z m 0,-13.7 c 2,-0.9 4.4,-1.5 6.9,-1.5 2.5,0 4.7,0.5 6.7,1.5 -3.7,0.1 -6.7,3.5 -6.7,7.6 0,-4.2 -3.1,-7.6 -6.9,-7.6 l 0,0 z M 90,150.4 c -3.1,0 -5.6,-2.7 -5.6,-6.1 0,-3.4 2.5,-6.1 5.6,-6.1 3.1,0 5.6,2.7 5.6,6.1 0,3.4 -2.5,6.1 -5.6,6.1 l 0,0 z m 0,-9.8 c -1.9,0 -3.4,1.6 -3.4,3.7 0,2 1.5,3.7 3.4,3.7 1.9,0 3.4,-1.6 3.4,-3.7 -0.1,-2.1 -1.6,-3.7 -3.4,-3.7 l 0,0 z m 0,6.2 c -1.3,0 -2.3,-1.1 -2.3,-2.5 0,-1.4 1,-2.5 2.3,-2.5 1.3,0 2.3,1.1 2.3,2.5 0,1.4 -1,2.5 -2.3,2.5 z M 75.9,143 c -0.6,0 -1.1,0.6 -1.1,1.2 0,0.7 0.5,1.2 1.1,1.2 0.6,0 1.1,-0.6 1.1,-1.2 0,-0.6 -0.5,-1.2 -1.1,-1.2 z"
     inkscape:connector-curvature="0" /><circle
     id="Oval_27_"
     cx="143"
     cy="143"
     r="22"
     style="fill:none;stroke:#000000;stroke-width:2" /><path
     id="Shape_28_"
     d="m 141.8,140.1 3.2,-4.8 c 0.6,-0.9 1.4,-1.4 2.4,-1.4 0.8,0 1.5,0.3 2.1,0.9 0.6,0.6 0.9,1.3 0.9,2.1 0,0.6 -0.2,1.1 -0.5,1.6 l -2.9,4.3 3.6,4.6 c 0.4,0.5 0.5,1 0.5,1.6 0,0.8 -0.3,1.5 -0.8,2.1 -0.6,0.6 -1.2,0.9 -2,0.9 -0.9,0 -1.5,-0.3 -2,-0.9 l -4.4,-5.6 0,3.1 c 0,0.9 -0.1,1.6 -0.4,2 -0.5,0.9 -1.3,1.3 -2.4,1.3 -0.9,0 -1.7,-0.3 -2.2,-1 -0.5,-0.6 -0.7,-1.4 -0.7,-2.4 l 0,-11.4 c 0,-0.9 0.2,-1.7 0.7,-2.3 0.5,-0.6 1.2,-1 2.1,-1 0.9,0 1.6,0.3 2.2,1 0.3,0.4 0.5,0.7 0.6,1.1 0.1,0.2 0.1,0.6 0.1,1.3 l -0.1,2.9"
     inkscape:connector-curvature="0" /><circle
     id="Oval_28_"
     cx="203"
     cy="143"
     r="22"
     style="fill:none;stroke:#000000;stroke-width:2" /><path
     id="Shape_29_"
     d="m 211.1,146.8 c -1.2,0 -2.3,-0.5 -3.3,-1.4 l 0.2,-1.2 0,0 c 0.2,-1.3 0.9,-3.4 3.1,-3.4 1.6,0 2.9,1.4 2.9,3 0,1.6 -1.3,3 -2.9,3 l 0,0 z m 0,-9.1 c -2.8,0 -4.9,1.8 -5.8,4.9 -1.3,-2 -2.3,-4.5 -2.9,-6.6 l -3,0 0,7.9 c 0,1.6 -1.2,2.8 -2.8,2.8 -1.5,0 -2.8,-1.3 -2.8,-2.8 l 0,-7.9 -3,0 0,7.9 c 0,3.3 2.6,5.9 5.7,5.9 3.2,0 5.7,-2.7 5.7,-5.9 l 0,-1.3 c 0.6,1.2 1.3,2.5 2.1,3.6 l -1.8,8.8 3,0 1.3,-6.4 c 1.2,0.8 2.5,1.2 4,1.2 3.2,0 5.9,-2.7 5.9,-6.1 0.3,-3.3 -2.3,-6 -5.6,-6 l 0,0 z"
     inkscape:connector-curvature="0" /><circle
     id="Oval_29_"
     cx="-337"
     cy="203"
     r="22"
     style="fill:none;stroke:#000000;stroke-width:2" /><path
     id="Shape_30_"
     d="m -349,203 c 0,4.9 3,9.1 7.2,11 0,-0.8 0,-1.8 0.2,-2.8 0.2,-1 1.5,-6.5 1.5,-6.5 0,0 -0.4,-0.8 -0.4,-1.9 0,-1.8 1,-3.1 2.3,-3.1 1.1,0 1.6,0.8 1.6,1.8 0,1.1 -0.7,2.7 -1.1,4.3 -0.3,1.3 0.6,2.3 1.9,2.3 2.3,0 3.8,-2.9 3.8,-6.4 0,-2.6 -1.8,-4.6 -5,-4.6 -3.6,0 -5.9,2.7 -5.9,5.7 0,1 0.3,1.8 0.8,2.4 0.2,0.3 0.3,0.4 0.2,0.7 -0.1,0.2 -0.2,0.8 -0.2,1 -0.1,0.3 -0.3,0.4 -0.6,0.3 -1.7,-0.7 -2.5,-2.5 -2.5,-4.6 0,-3.4 2.9,-7.5 8.6,-7.5 4.6,0 7.6,3.3 7.6,6.9 0,4.7 -2.6,8.2 -6.5,8.2 -1.3,0 -2.5,-0.7 -2.9,-1.5 0,0 -0.7,2.8 -0.8,3.3 -0.3,0.9 -0.8,1.8 -1.2,2.6 1.1,0.3 2.2,0.5 3.4,0.5 6.6,0 12,-5.4 12,-12 0,-6.6 -5.4,-12 -12,-12 -6.6,-0.1 -12,5.3 -12,11.9 z"
     inkscape:connector-curvature="0" /><circle
     id="Oval_30_"
     cx="-277"
     cy="203"
     r="22"
     style="fill:none;stroke:#000000;stroke-width:2" /><path
     id="Shape_31_"
     d="m -287,201.3 c 0,2.6 1,4.9 3,5.7 0.3,0.1 0.6,0 0.7,-0.4 0.1,-0.3 0.2,-0.9 0.3,-1.2 0.1,-0.4 0.1,-0.5 -0.2,-0.8 -0.6,-0.7 -1,-1.6 -1,-2.9 0,-3.8 2.8,-7.2 7.3,-7.2 4,0 6.2,2.5 6.2,5.7 0,4.3 -1.9,7.9 -4.7,7.9 -1.6,0 -2.7,-1.3 -2.3,-2.9 0.4,-1.9 1.3,-3.9 1.3,-5.3 0,-1.2 -0.7,-2.2 -2,-2.2 -1.6,0 -2.9,1.7 -2.9,3.9 0,1.4 0.5,2.4 0.5,2.4 0,0 -1.6,6.9 -1.9,8.1 -0.6,2.4 -0.1,5.4 0,5.7 0,0.2 0.2,0.2 0.4,0.1 0.1,-0.2 2,-2.5 2.7,-4.9 0.2,-0.7 1,-4.1 1,-4.1 0.5,1 2,1.9 3.6,1.9 4.8,0 8,-4.4 8,-10.2 0,-4.4 -3.7,-8.6 -9.4,-8.6 -7,0 -10.6,5.1 -10.6,9.3 z"
     inkscape:connector-curvature="0" /><circle
     id="Oval_31_"
     cx="-217"
     cy="203"
     r="22"
     style="fill:none;stroke:#000000;stroke-width:2" /><path
     id="Shape_32_"
     d="m -217.4,197.5 c 0.4,0.6 0.6,1.3 0.6,2.1 0,0.8 -0.2,1.5 -0.6,2 -0.2,0.3 -0.6,0.5 -1,0.8 0.7,0.3 1.2,0.7 1.5,1.2 0.3,0.5 0.5,1.2 0.5,2 0,0.8 -0.2,1.5 -0.6,2.2 -0.2,0.4 -0.6,0.8 -0.9,1.1 -0.4,0.3 -0.9,0.6 -1.5,0.7 -0.6,0.1 -1.2,0.2 -1.8,0.2 l -5.8,0 0,-13.8 6.3,0 c 1.6,0 2.7,0.5 3.3,1.5 l 0,0 z m -7,0.9 0,3 3.2,0 c 0.6,0 1,-0.1 1.4,-0.3 0.3,-0.2 0.5,-0.6 0.5,-1.2 0,-0.6 -0.2,-1.1 -0.7,-1.3 -0.4,-0.1 -0.9,-0.2 -1.5,-0.2 l -2.9,0 0,0 z m 0,5.2 0,3.6 3.2,0 c 0.6,0 1,-0.1 1.3,-0.2 0.6,-0.3 0.9,-0.9 0.9,-1.7 0,-0.7 -0.3,-1.2 -0.8,-1.5 -0.3,-0.1 -0.7,-0.2 -1.3,-0.2 l -3.3,0 0,0 z m 15.9,-3.8 c 0.7,0.3 1.2,0.8 1.7,1.5 0.4,0.6 0.7,1.3 0.8,2.1 0.1,0.5 0.1,1.1 0.1,2 l -7,0 c 0,1 0.4,1.7 1,2.1 0.4,0.3 0.8,0.4 1.4,0.4 0.6,0 1,-0.2 1.4,-0.5 0.2,-0.2 0.4,-0.4 0.5,-0.7 l 2.6,0 c -0.1,0.6 -0.4,1.2 -0.9,1.8 -0.9,1 -2.1,1.5 -3.6,1.5 -1.3,0 -2.4,-0.4 -3.4,-1.2 -1,-0.8 -1.5,-2.2 -1.5,-4 0,-1.8 0.4,-3.1 1.3,-4 0.9,-0.9 2,-1.4 3.4,-1.4 0.8,-0.1 1.5,0 2.2,0.4 l 0,0 z m -3.8,2.2 c -0.4,0.4 -0.6,0.9 -0.7,1.6 l 4.3,0 c 0,-0.7 -0.3,-1.2 -0.7,-1.6 -0.4,-0.4 -0.9,-0.5 -1.5,-0.5 -0.5,0 -1,0.2 -1.4,0.5 l 0,0 z m -1.3,-3.7 5.6,0 0,-1.7 -5.6,0 0,1.7 z"
     inkscape:connector-curvature="0" /><circle
     id="Oval_32_"
     cx="-157"
     cy="203"
     r="22"
     style="fill:none;stroke:#000000;stroke-width:2" /><path
     id="Shape_33_"
     d="m -146.2,200.8 c -0.1,-0.7 -0.4,-1.4 -0.6,-2.1 -0.3,-0.7 -0.6,-1.3 -1,-1.9 -0.4,-0.6 -0.8,-1.1 -1.3,-1.6 -0.5,-0.5 -1,-0.9 -1.6,-1.3 -0.6,-0.4 -1.2,-0.7 -1.9,-1 -0.7,-0.3 -1.4,-0.5 -2.1,-0.6 -0.7,-0.1 -1.5,-0.2 -2.2,-0.2 -0.7,0 -1.5,0.1 -2.2,0.2 -0.7,0.1 -1.4,0.4 -2.1,0.6 -0.7,0.3 -1.3,0.6 -1.9,1 -0.6,0.4 -1.1,0.8 -1.6,1.3 -0.5,0.5 -0.9,1 -1.3,1.6 -0.4,0.6 -0.7,1.2 -1,1.9 -0.3,0.7 -0.5,1.4 -0.6,2.1 -0.1,0.7 -0.2,1.5 -0.2,2.2 0,0.7 0.1,1.5 0.2,2.2 0.1,0.7 0.4,1.4 0.6,2.1 0.3,0.7 0.6,1.3 1,1.9 0.4,0.6 0.8,1.1 1.3,1.6 0.5,0.5 1,0.9 1.6,1.3 0.6,0.4 1.2,0.7 1.9,1 0.7,0.3 1.4,0.5 2.1,0.6 0.7,0.2 1.5,0.2 2.2,0.2 0.7,0 1.5,-0.1 2.2,-0.2 0.7,-0.1 1.4,-0.4 2.1,-0.6 0.7,-0.3 1.3,-0.6 1.9,-1 0.6,-0.4 1.1,-0.8 1.6,-1.3 0.5,-0.5 0.9,-1 1.3,-1.6 0.4,-0.6 0.7,-1.2 1,-1.9 0.3,-0.7 0.5,-1.4 0.6,-2.1 0.1,-0.7 0.2,-1.5 0.2,-2.2 0,-0.7 -0.1,-1.5 -0.2,-2.2 l 0,0 z m -1.4,2.1 c -0.1,0 -3.3,-0.7 -6.5,-0.3 -0.1,-0.2 -0.1,-0.3 -0.2,-0.5 -0.2,-0.5 -0.4,-0.9 -0.6,-1.4 3.7,-1.5 5.2,-3.7 5.2,-3.7 1.3,1.6 2.1,3.7 2.1,5.9 l 0,0 z m -3.2,-6.9 c 0,0 -1.4,2.1 -4.9,3.4 -1.6,-3 -3.4,-5.3 -3.5,-5.5 0.7,-0.2 1.5,-0.3 2.2,-0.3 2.4,0 4.5,0.9 6.2,2.4 l 0,0 z m -8.5,-2.1 0,0 0,0 0,0 0,0 z m -1.7,0.6 c 0.1,0.2 1.9,2.5 3.5,5.4 -4.5,1.2 -8.4,1.2 -8.7,1.1 0.6,-2.8 2.6,-5.3 5.2,-6.5 l 0,0 z m -5.4,8.5 c 0,-0.1 0,-0.2 0,-0.3 0.2,0 4.8,0.1 9.6,-1.3 0.3,0.5 0.5,1.1 0.8,1.6 -0.1,0 -0.2,0.1 -0.4,0.1 -5.1,1.6 -7.6,6.2 -7.6,6.2 l 0,0 c -1.5,-1.7 -2.4,-3.9 -2.4,-6.3 l 0,0 z m 9.4,9.4 c -2.3,0 -4.4,-0.8 -6,-2.2 0.1,0.1 0.2,0.2 0.2,0.2 0,0 1.8,-3.9 7.4,-5.9 0,0 0,0 0.1,0 1.3,3.4 1.9,6.3 2,7.1 -1.2,0.5 -2.4,0.8 -3.7,0.8 l 0,0 z m 5.3,-1.6 c -0.1,-0.6 -0.6,-3.3 -1.8,-6.7 3,-0.5 5.7,0.3 5.9,0.4 -0.5,2.6 -2,4.9 -4.1,6.3 l 0,0 z"
     inkscape:connector-curvature="0" /><circle
     id="Oval_33_"
     cx="-97"
     cy="203"
     r="22"
     style="fill:none;stroke:#000000;stroke-width:2" /><path
     id="Shape_34_"
     d="m -100.1,197.7 c -0.3,2 -1.3,2.8 -2.4,2.9 l 0,0.6 1.4,0 0,5.1 c 0,1.4 0.9,2.1 2.1,2.1 0.9,0 1.9,-0.4 2.2,-1.3 l -0.3,-0.5 c -0.2,0.3 -0.7,0.7 -1.3,0.7 -0.7,0 -1.1,-0.5 -1.1,-1.8 l 0,-4.5 2.4,0.2 0.1,-1.1 -2.5,0.1 0,-2.6 -0.6,0 0,0.1 z m 5,7.9 -0.6,0 c 0.1,0.8 0.1,1.6 0,2.3 0,0 1.2,0.5 2.4,0.5 1.7,0 3,-0.8 3,-2.5 0,-2.8 -4,-2.4 -4,-4.3 0,-0.8 0.7,-1.1 1.4,-1.1 0.6,0 1.1,0.2 1.2,0.5 l 0.4,1.3 0.6,0 c 0,-0.7 0.1,-1.4 0.2,-2.1 -0.5,-0.2 -1.6,-0.4 -2.2,-0.4 -1.6,0 -2.8,0.7 -2.8,2.3 0,2.8 3.9,2.2 3.9,4.3 0,0.7 -0.4,1.2 -1.4,1.2 -0.9,0 -1.4,-0.5 -1.5,-1 l -0.6,-1 0,0 z m 6.5,5.4 c -0.5,0 -0.6,-0.2 -0.7,-0.6 l -0.2,-1.3 -0.7,0 c -0.1,0.8 -0.2,1.6 -0.4,2.3 0.4,0.3 1,0.5 1.7,0.5 1.1,0 2.7,-0.3 4.2,-4 l 2.5,-6.3 c 0.2,-0.5 0.3,-0.6 0.9,-0.8 l 0.3,-0.1 0,-0.6 -1.5,0.1 -1.6,-0.1 0,0.6 0.4,0.1 c 0.4,0.1 0.6,0.3 0.6,0.6 0,0.2 0,0.3 -0.1,0.5 -0.2,0.5 -1.3,3.4 -1.9,4.7 -0.7,-1.8 -1.7,-4.6 -1.8,-5 0,-0.1 0,-0.2 0,-0.3 0,-0.3 0.2,-0.5 0.6,-0.6 l 0.5,-0.1 0,-0.6 -2.2,0.1 -1.7,-0.1 0,0.6 0.3,0.1 c 0.4,0.2 0.5,0.2 0.7,0.8 1.1,2.6 2.3,5.9 2.7,7 -0.9,2 -1.9,2.5 -2.6,2.5 l 0,0 z m -21,-13.7 c 0,-0.2 0,-0.3 0.3,-0.3 l 3.6,0 c 0.6,0 1,0.6 1.2,1.6 l 0.2,0.9 0.6,0 c 0.1,-2.4 0.2,-3.5 0.2,-3.5 0,0 -1.6,0.2 -2.5,0.2 l -4.7,0 -2.5,-0.1 0,0.7 0.8,0.2 c 0.6,0.1 0.7,0.3 0.8,0.8 0,0 0,1.7 0,4.4 0,2.8 0,4.4 0,4.4 0,0.5 -0.2,0.7 -0.8,0.8 l -0.8,0.2 0,0.7 2.5,-0.1 4.2,0 c 0.9,0 3.1,0.1 3.1,0.1 0,-0.6 0.4,-3.3 0.4,-3.6 l -0.6,0 -0.6,1.5 c -0.5,1.2 -1.2,1.3 -2,1.3 l -2.4,0 c -0.8,0 -1.2,-0.3 -1.2,-1.1 l 0,-3.8 c 0,0 1.8,0 2.3,0.1 0.4,0 0.7,0.2 0.9,0.8 l 0.2,0.9 0.7,0 0,-2.2 0.1,-2.2 -0.7,0 -0.2,1 c -0.1,0.6 -0.2,0.8 -0.9,0.8 -0.8,0.1 -2.4,0.1 -2.4,0.1 l 0,-4.6 0.2,0 z"
     inkscape:connector-curvature="0" /><circle
     id="Oval_34_"
     cx="-37"
     cy="203"
     r="22"
     style="fill:none;stroke:#000000;stroke-width:2" /><path
     id="Shape_35_"
     d="m -39.8,195 c 0,-0.3 0,-0.4 0.4,-0.4 l 5.7,0 c 1,0 1.5,0.9 1.9,2.7 l 0.3,1.4 1,0 c 0.2,-3.9 0.3,-5.7 0.3,-5.7 0,0 -2.4,0.3 -3.9,0.3 l -7.3,0 -3.9,-0.1 0,1.1 1.3,0.3 c 0.9,0.2 1.1,0.4 1.2,1.3 0,0 0.1,2.7 0.1,7.2 0,4.5 -0.1,7.2 -0.1,7.2 0,0.8 -0.3,1.1 -1.2,1.3 l -1.3,0.3 0,1.1 3.9,-0.1 6.5,0 c 1.5,0 4.9,0.1 4.9,0.1 0.1,-1 0.6,-5.4 0.6,-5.9 l -0.9,0 -1,2.4 c -0.8,1.9 -1.9,2 -3.1,2 l -3.7,0 c -1.2,0 -1.8,-0.5 -1.8,-1.7 l 0,-6.2 c 0,0 2.8,0 3.7,0.1 0.7,0.1 1.1,0.3 1.3,1.3 l 0.3,1.4 1.1,0 -0.1,-3.6 0.1,-3.6 -1.1,0 -0.3,1.6 c -0.2,1 -0.4,1.2 -1.3,1.3 -1.3,0.1 -3.7,0.1 -3.7,0.1 l 0,-7.2 0.1,0 z"
     inkscape:connector-curvature="0" /><circle
     id="Oval_35_"
     cx="23"
     cy="203"
     r="22"
     style="fill:none;stroke:#000000;stroke-width:2" /><path
     id="Shape_36_"
     d="m 34,203 c 0,2.8 -2.2,5 -4.8,5 -2.7,0 -4.8,-2.2 -4.8,-5 0,-2.8 2.2,-5 4.8,-5 2.6,0 4.8,2.2 4.8,5 m -12.3,0 c 0,2.8 -2.2,5 -4.8,5 -2.7,0 -4.8,-2.2 -4.8,-5 0,-2.8 2.2,-5 4.8,-5 2.6,0 4.8,2.2 4.8,5"
     inkscape:connector-curvature="0" /><circle
     id="Oval_36_"
     cx="83"
     cy="203"
     r="22"
     style="fill:none;stroke:#000000;stroke-width:2" /><path
     id="Shape_37_"
     d="m 94,203.3 c -0.4,-0.5 -0.9,-0.7 -1.5,-0.7 -0.3,0 -0.7,0.1 -1,0.2 -0.3,0.2 -0.6,0.4 -0.9,0.6 -0.3,0.2 -0.6,0.5 -0.8,0.8 -0.3,0.3 -0.5,0.5 -0.7,0.8 0.2,0.3 0.5,0.5 0.7,0.8 0.3,0.3 0.5,0.5 0.8,0.7 0.3,0.2 0.6,0.4 0.9,0.5 0.3,0.1 0.7,0.2 1,0.2 0.6,0 1.1,-0.2 1.5,-0.7 0.3,-0.4 0.5,-1 0.5,-1.6 0.1,-0.6 -0.1,-1.2 -0.5,-1.6 l 0,0 z m -8.8,0.9 c -0.3,-0.3 -0.6,-0.5 -0.9,-0.8 -0.3,-0.2 -0.6,-0.4 -0.9,-0.6 -0.3,-0.2 -0.7,-0.2 -1,-0.2 -0.6,0 -1.1,0.2 -1.4,0.7 -0.4,0.5 -0.5,1 -0.5,1.6 0,0.7 0.2,1.2 0.5,1.6 0.4,0.4 0.9,0.6 1.5,0.6 0.3,0 0.7,-0.1 1,-0.2 0.3,-0.1 0.6,-0.3 0.9,-0.5 0.3,-0.2 0.6,-0.4 0.8,-0.7 0.3,-0.3 0.5,-0.5 0.7,-0.8 -0.2,-0.2 -0.4,-0.5 -0.7,-0.7 l 0,0 z m 11.5,2.6 c -0.2,0.6 -0.5,1.2 -0.9,1.6 -0.4,0.5 -0.9,0.8 -1.4,1.1 -0.6,0.3 -1.2,0.4 -1.9,0.4 -0.5,0 -1,-0.1 -1.5,-0.3 -0.5,-0.2 -0.9,-0.4 -1.3,-0.7 -0.4,-0.3 -0.8,-0.6 -1.2,-1 -0.4,-0.4 -0.7,-0.8 -1,-1.2 -0.4,0.4 -0.7,0.8 -1.1,1.2 -0.3,0.4 -0.7,0.7 -1.1,1 -0.4,0.3 -0.8,0.5 -1.3,0.7 -0.5,0.2 -1,0.3 -1.5,0.3 -0.7,0 -1.3,-0.1 -1.9,-0.4 -0.6,-0.3 -1,-0.6 -1.4,-1.1 -0.4,-0.4 -0.7,-0.9 -0.9,-1.4 l 0,0 c -0.3,0.6 -0.6,1.1 -1.1,1.6 -0.4,0.4 -1,0.8 -1.5,1 -0.6,0.2 -1.2,0.4 -1.9,0.3 -0.6,0 -1.2,-0.1 -1.8,-0.3 -0.6,-0.2 -1.1,-0.4 -1.5,-0.8 -0.4,-0.4 -0.8,-0.8 -1.1,-1.4 -0.3,-0.5 -0.4,-1.2 -0.4,-1.9 l 2.7,0 c 0.1,0.6 0.3,1.1 0.7,1.5 0.4,0.4 0.9,0.6 1.5,0.6 0.3,0 0.7,-0.1 0.9,-0.2 0.3,-0.2 0.5,-0.3 0.7,-0.6 0.2,-0.2 0.3,-0.5 0.4,-0.8 0.1,-0.3 0.2,-0.7 0.2,-1 0,-0.4 0,-0.7 -0.1,-1 -0.1,-0.3 -0.2,-0.6 -0.4,-0.8 -0.2,-0.2 -0.4,-0.4 -0.7,-0.5 -0.3,-0.1 -0.6,-0.2 -1,-0.2 -0.5,0 -0.9,0.1 -1.2,0.3 -0.3,0.2 -0.6,0.5 -0.8,0.8 l -2.4,0 1.3,-7.6 7.3,0 0,2.3 -5.4,0 -0.5,3.1 0,0 c 0.4,-0.4 0.7,-0.7 1.2,-0.8 0.4,-0.2 0.9,-0.2 1.4,-0.2 0.6,0 1.2,0.1 1.7,0.4 0.5,0.2 0.9,0.6 1.3,1 0.3,0.3 0.5,0.7 0.6,1.1 0.2,-0.6 0.5,-1.1 0.9,-1.5 0.4,-0.4 0.8,-0.8 1.4,-1.1 0.6,-0.3 1.2,-0.4 1.9,-0.4 0.6,0 1.1,0.1 1.6,0.3 0.5,0.2 0.9,0.4 1.3,0.7 0.4,0.3 0.8,0.6 1.1,1 0.4,0.4 0.7,0.8 1.1,1.2 0.3,-0.4 0.7,-0.8 1,-1.2 0.4,-0.4 0.7,-0.7 1.1,-1 0.4,-0.3 0.8,-0.5 1.3,-0.7 0.5,-0.2 1,-0.3 1.5,-0.3 0.7,0 1.3,0.1 1.9,0.4 0.6,0.3 1,0.6 1.4,1 0.4,0.4 0.7,1 0.9,1.6 0.2,0.6 0.3,1.3 0.3,2 -0.1,0.6 -0.2,1.3 -0.4,1.9 l 0,0 z"
     inkscape:connector-curvature="0" /><circle
     id="Oval_37_"
     cx="143"
     cy="203"
     r="22"
     style="fill:none;stroke:#000000;stroke-width:2" /><path
     id="Shape_38_"
     d="m 143,194.7 c -1,0 -1.8,-0.8 -1.8,-1.8 0,-1 0.8,-1.8 1.8,-1.8 1,0 1.8,0.8 1.8,1.8 0,1 -0.8,1.8 -1.8,1.8 z m -10.2,10.1 c -0.5,0 -0.9,-0.2 -1.3,-0.5 -0.7,-0.7 -0.7,-1.9 0,-2.6 0.4,-0.4 0.8,-0.5 1.3,-0.5 0.5,0 0.9,0.2 1.3,0.5 0.7,0.7 0.7,1.9 0,2.6 -0.3,0.4 -0.8,0.5 -1.3,0.5 z m 5.1,-5 c -0.5,0 -0.9,-0.2 -1.3,-0.5 -0.7,-0.7 -0.7,-1.9 0,-2.6 0.4,-0.4 0.8,-0.5 1.3,-0.5 0.5,0 0.9,0.2 1.3,0.5 0.7,0.7 0.7,1.9 0,2.6 -0.3,0.3 -0.8,0.5 -1.3,0.5 z m 10.1,-0.1 c -1,0 -1.8,-0.8 -1.8,-1.8 0,-1 0.8,-1.8 1.8,-1.8 l 0,0 c 1,0 1.8,0.8 1.8,1.8 0.1,1 -0.8,1.8 -1.8,1.8 z m -10.1,10.2 c -0.5,0 -0.9,-0.2 -1.3,-0.5 -0.7,-0.7 -0.7,-1.9 0,-2.6 0.4,-0.4 0.8,-0.5 1.3,-0.5 0.5,0 0.9,0.2 1.3,0.5 0.7,0.7 0.7,1.9 0,2.6 -0.4,0.3 -0.9,0.5 -1.3,0.5 z m 5,-5.1 c -0.5,0 -0.9,-0.2 -1.3,-0.5 -0.7,-0.7 -0.7,-1.9 0,-2.6 0.4,-0.4 0.8,-0.5 1.3,-0.5 0.5,0 0.9,0.2 1.3,0.5 0.7,0.7 0.7,1.9 0,2.6 -0.3,0.3 -0.8,0.5 -1.3,0.5 z m 10.3,0 c -1,0 -1.8,-0.8 -1.8,-1.8 0,-1 0.8,-1.8 1.8,-1.8 l 0,0 c 1,0 1.8,0.8 1.8,1.8 0,1 -0.8,1.8 -1.8,1.8 z M 143,215 c -0.5,0 -0.9,-0.2 -1.3,-0.5 -0.7,-0.7 -0.7,-1.9 0,-2.6 0.4,-0.4 0.8,-0.5 1.3,-0.5 0.5,0 0.9,0.2 1.3,0.5 0.7,0.7 0.7,1.9 0,2.6 -0.4,0.3 -0.8,0.5 -1.3,0.5 z m 5.1,-5.1 c -0.5,0 -0.9,-0.2 -1.3,-0.5 -0.7,-0.7 -0.7,-1.9 0,-2.6 0.4,-0.4 0.8,-0.5 1.3,-0.5 0.5,0 0.9,0.2 1.3,0.5 0.7,0.7 0.7,1.9 0,2.6 -0.4,0.3 -0.9,0.5 -1.3,0.5 z"
     inkscape:connector-curvature="0" /><circle
     id="Oval_38_"
     cx="203"
     cy="203"
     r="22"
     style="fill:none;stroke:#000000;stroke-width:2" /><path
     id="Shape_39_"
     d="m 212.1,196.8 2.7,0 0,13 -3.2,0 c 1.5,-2 2.3,-4.4 2.3,-6.9 0,-2.2 -0.6,-4.3 -1.8,-6.1 l 0,0 z m -20.9,0 2.9,0 c -1.2,1.8 -1.8,3.9 -1.8,6.1 0,2.5 0.8,5 2.3,6.9 l -3.4,0 0,-13 z m 12,-1.7 0.2,1.7 c 3.4,0.3 5.6,2.3 5.8,5.8 l 1.8,0.1 c 0,-4.4 -3.3,-7.7 -7.8,-7.6 l 0,0 z m 0.2,-1.5 0,0 c 2,0.1 3.8,0.7 5.4,2 0.2,0.2 0.5,0.4 0.7,0.6 0.2,0.2 0.4,0.4 0.6,0.7 l 0,0 c 1.5,1.7 2.3,3.9 2.3,6.1 0,2.6 -1.1,5.2 -3.1,6.9 -0.2,0.2 -0.5,0.4 -0.7,0.6 l 0,0 0,0 c -0.2,0.2 -0.5,0.3 -0.7,0.5 l 0,0 c -0.1,0.1 -0.2,0.1 -0.3,0.2 -2.7,1.5 -6,1.5 -8.7,0 -0.2,-0.1 -0.5,-0.3 -0.7,-0.4 l -0.1,-0.1 c -0.2,-0.1 -0.3,-0.2 -0.5,-0.4 -0.1,-0.1 -0.3,-0.2 -0.4,-0.3 l 0,0 c -1.9,-1.8 -3.1,-4.3 -3.1,-6.9 0,-2.2 0.8,-4.4 2.2,-6.1 l 0,0 c 0.2,-0.2 0.4,-0.4 0.6,-0.6 0.2,-0.2 0.4,-0.4 0.7,-0.6 1.5,-1.6 3.6,-2.3 5.8,-2.2 l 0,0 z m 0,-1.6 c -2.8,-0.1 -5.5,0.9 -7.6,2.9 l 0,-0.4 c 0,-0.2 -0.2,-0.4 -0.4,-0.4 l -3.7,0 c -0.2,0 -0.4,0.2 -0.4,0.4 l 0,1 -1.3,0 0,15.5 5.8,0 c 4.1,3.9 10.5,3.9 14.7,0 l 5.6,0 0,-15.5 -4.9,0 c -2.1,-2.1 -4.9,-3.4 -7.8,-3.5 l 0,0 z"
     inkscape:connector-curvature="0" /><circle
     id="Oval_39_"
     cx="-337"
     cy="263"
     r="22"
     style="fill:none;stroke:#000000;stroke-width:2" /><path
     id="Shape_40_"
     d="m -335.7,270.6 c -0.5,0.1 -0.9,0.2 -1.4,0.2 -2.4,0 -5.2,-1.1 -5.2,-7.7 0,-6.6 3,-8.5 5.3,-8.5 2.4,0 5.1,1.6 5.1,8.2 0,3 -0.6,4.9 -1.5,6.1 l 0,0 c -2,-2.6 -4.5,-2 -5.1,-1.7 0,0 0.1,0.6 0.2,1.7 1.5,0.1 2.2,0.8 2.6,1.7 l 0,0 0,0 z m 3.9,1.3 0,0 c 2.9,-1.9 4.8,-5.3 4.8,-9.3 0,-7.8 -4.9,-10.6 -10,-10.6 -4.8,0 -10,3.9 -10,10.7 0,7.8 4.9,10.7 10,10.7 0.8,0 1.6,-0.1 2.3,-0.3 l 0,0 c 2,3.7 5,2.8 5.8,2.5 0,0 -0.1,-0.7 -0.3,-1.9 -1.4,0.1 -2.1,-0.7 -2.6,-1.8 l 0,0 z"
     inkscape:connector-curvature="0" /><circle
     id="Oval_40_"
     cx="-277"
     cy="263"
     r="22"
     style="fill:none;stroke:#000000;stroke-width:2" /><path
     id="Shape_41_"
     d="m -273.6,267.5 -10,-0.9 -0.2,2.2 10,0.9 0.2,-2.2 z m -0.2,2.8 -10.1,0 0,2.2 10.1,0 0,-2.2 z m 2.2,-8.1 -8.7,-5.2 -1.1,1.9 8.7,5.2 1.1,-1.9 z m -1.3,2.5 -9.7,-2.7 -0.6,2.1 9.7,2.7 0.6,-2.1 z m 0.8,9.6 -13.2,0 0,-9 -1.7,0 0,10.7 0,0 0.5,0 16.1,0 0,0 0,-0.5 0,-10.2 -1.7,0 c 0,0 0,9 0,9 z m 3.4,-24.3 -2.1,0.4 1.7,10.1 2.1,-0.4 -1.7,-10.1 z m -8.2,3.4 5.7,8.5 1.8,-1.2 -5.7,-8.5 -1.8,1.2 z"
     inkscape:connector-curvature="0" /><circle
     id="Oval_41_"
     cx="-217"
     cy="263"
     r="22"
     style="fill:none;stroke:#000000;stroke-width:2" /><path
     id="Shape_42_"
     d="m -229,263.3 c 0,5.4 3.4,10 8.2,11.7 0.6,0.1 0.8,-0.3 0.8,-0.6 0,-0.3 0,-1.1 0,-2.1 -3.3,0.7 -4,-1.6 -4,-1.6 -0.5,-1.4 -1.3,-1.8 -1.3,-1.8 -1.1,-0.8 0.1,-0.7 0.1,-0.7 1.2,0.1 1.8,1.3 1.8,1.3 1.1,1.9 2.8,1.3 3.5,1 0.1,-0.8 0.4,-1.3 0.8,-1.6 -2.7,-0.3 -5.5,-1.4 -5.5,-6.1 0,-1.3 0.5,-2.4 1.2,-3.3 -0.1,-0.3 -0.5,-1.6 0.1,-3.3 0,0 1,-0.3 3.3,1.3 1,-0.3 2,-0.4 3,-0.4 1,0 2,0.1 3,0.4 2.3,-1.6 3.3,-1.3 3.3,-1.3 0.7,1.7 0.2,2.9 0.1,3.3 0.8,0.9 1.2,2 1.2,3.3 0,4.7 -2.8,5.8 -5.5,6.1 0.4,0.4 0.8,1.1 0.8,2.3 0,1.6 0,3 0,3.4 0,0.3 0.2,0.7 0.8,0.6 4.8,-1.6 8.2,-6.2 8.2,-11.7 0,-6.8 -5.4,-12.3 -12,-12.3 -6.5,-0.2 -11.9,5.3 -11.9,12.1 z"
     inkscape:connector-curvature="0" /><circle
     id="Oval_42_"
     cx="-157"
     cy="263"
     r="22"
     style="fill:none;stroke:#000000;stroke-width:2" /><path
     id="Shape_43_"
     d="m -151.7,261.8 -4.3,-3 0,-4.8 7.7,5.4 -3.4,2.4 z m 1.8,1.2 2.5,-1.7 0,3.5 -2.5,-1.8 z m -6.1,4.2 4.3,-3 3.5,2.4 -7.8,5.4 0,-4.8 z m -6.3,-3 4.3,3 0,4.8 -7.7,-5.4 3.4,-2.4 z m -1.8,-1.2 -2.5,1.7 0,-3.5 2.5,1.8 z m 6.1,-4.2 -4.3,3 -3.5,-2.4 7.7,-5.4 0,4.8 0.1,0 z m 1,6.6 -3.5,-2.4 3.5,-2.4 3.5,2.4 -3.5,2.4 z m 11.5,-6.2 c 0,-0.1 0,-0.1 0,0 0,-0.1 0,-0.1 0,-0.1 l 0,-0.1 c 0,0 0,0 0,-0.1 0,0 0,0 0,-0.1 l 0,0 c 0,0 0,0 0,-0.1 l 0,0 c 0,0 0,0 0,-0.1 l 0,0 c 0,0 0,0 -0.1,0 l 0,0 0,0 -10.5,-7.3 c -0.3,-0.2 -0.8,-0.2 -1.1,0 l -10.5,7.3 0,0 0,0 c 0,0 0,0 -0.1,0 l 0,0 c 0,0 0,0 0,0.1 l 0,0 c 0,0 0,0 0,0.1 l 0,0 c 0,0 0,0 0,0.1 0,0 0,0 0,0.1 l 0,0.1 c 0,0 0,0 0,0.1 l 0,0.1 0,0 0,0.1 0,7.3 0,0.1 0,0 0,0.1 c 0,0 0,0 0,0.1 l 0,0.1 0,0 c 0,0 0,0 0,0.1 l 0,0 c 0,0 0,0 0,0.1 l 0,0 c 0,0 0,0 0,0.1 l 0,0 c 0,0 0,0 0.1,0 l 0,0 0,0 10.5,7.3 c 0.2,0.1 0.4,0.2 0.5,0.2 0.2,0 0.4,-0.1 0.5,-0.2 l 10.5,-7.3 0,0 0,0 c 0,0 0,0 0.1,0 l 0,0 c 0,0 0,0 0,-0.1 l 0,0 c 0,0 0,0 0,-0.1 l 0,0 c 0,0 0,0 0,-0.1 l 0,0 0,-0.1 c 0,0 0,0 0,-0.1 l 0,-0.1 0,0 0,-0.1 0,-7.3 c 0.1,-0.1 0.1,-0.1 0.1,-0.2 l 0,0 0,0 z"
     inkscape:connector-curvature="0" /><circle
     id="Oval_43_"
     cx="-97"
     cy="263"
     r="22"
     style="fill:none;stroke:#000000;stroke-width:2" /><path
     id="Shape_44_"
     d="m -85,266.2 c 0,2.7 -2.1,4.8 -4.7,4.8 -0.1,0 -0.2,0 -0.3,0 l -14.3,0 c -2.6,-0.2 -4.8,-2.2 -4.8,-4.9 0,-1.8 0.9,-3.4 2.4,-4.2 -0.1,-0.3 -0.1,-0.6 -0.1,-1 0,-1.9 1.5,-3.4 3.3,-3.4 0.8,0 1.5,0.3 2,0.7 1.1,-2.5 3.6,-4.2 6.4,-4.2 3.9,0 7.1,3.3 7.1,7.3 0,0.1 0,0.3 0,0.4 1.8,0.8 3,2.5 3,4.5 l 0,0 z m -15.1,2 c 1.1,0 2,-0.4 2.8,-1.2 -0.3,-0.4 -0.7,-0.9 -1.1,-1.3 -0.5,0.5 -1,0.8 -1.7,0.8 -0.8,0 -1.5,-0.6 -1.5,-1.5 0,-0.9 0.7,-1.5 1.5,-1.5 2.6,0 3.1,4.7 6.9,4.7 1.8,0 3.4,-1.2 3.4,-3.2 0,-2 -1.6,-3.2 -3.4,-3.2 -1.1,0 -2,0.3 -2.8,1.2 0.4,0.4 0.7,0.9 1.1,1.3 0.5,-0.5 1,-0.8 1.7,-0.8 0.8,0 1.5,0.6 1.5,1.4 0,0.9 -0.7,1.5 -1.5,1.5 -2.5,0 -3.2,-4.7 -6.8,-4.7 -1.8,0 -3.4,1.2 -3.4,3.2 -0.1,2.1 1.4,3.3 3.3,3.3 l 0,0 z"
     inkscape:connector-curvature="0" /><circle
     id="Oval_44_"
     cx="-37"
     cy="263"
     r="22"
     style="fill:none;stroke:#000000;stroke-width:2" /><path
     id="Shape_45_"
     d="m -31.3,265.8 c 0.1,0 0.2,0.1 0.3,0.1 0,-0.1 0.1,-0.3 0.1,-0.5 -0.2,0 -0.3,0 -0.4,0 0,0.2 0,0.3 0,0.4 l 0,0 z m -4.9,-12.3 c 0.6,0.1 1.3,0.3 1.9,0.3 -1,-1.4 -2.7,-1.7 -4.2,-1.3 1.1,0.2 1.8,0.6 2.3,1 l 0,0 z m 2.6,0.2 c 0.2,-0.1 0.4,-0.3 0.6,-0.5 -0.3,-0.2 -0.8,-0.4 -1.3,-0.6 -0.1,0.1 -0.1,0.1 -0.1,0.2 0.3,0.2 0.6,0.6 0.8,0.9 l 0,0 z m 0.9,-1 c 0.2,-0.4 0.3,-0.7 0.3,-0.7 -0.1,0.1 -0.1,0.4 -0.3,0.7 0.4,0.3 0.6,0.5 0.8,0.7 0.3,-0.3 0.7,-0.8 0.7,-1.5 0,-0.9 -0.7,-1 -0.7,-1 -0.1,0 -0.1,-0.1 -0.1,-0.1 0,-0.1 0.1,-0.1 0.1,-0.1 0,0 0.9,0.1 0.8,1.2 0,0.7 -0.5,1.4 -0.8,1.6 0.1,0.1 0.1,0.2 0.2,0.3 l 1.2,-0.9 c 0.7,-1 0.6,-1.9 0.6,-1.9 0,-0.1 0,-0.1 0.1,-0.1 0.1,0 0.1,0 0.1,0.1 0,0 0,0.8 -0.4,1.6 l 3.8,-2.8 -5.1,4.6 c 0.1,0.4 0.1,0.7 0.1,1 l 0.1,0 c 1.2,-0.8 2.6,-1.4 2.6,-1.4 0,0 -0.9,0.8 -2,1.6 0.2,0.1 0.5,0.2 0.7,0.4 0.3,-0.2 0.7,-0.4 1.2,-0.5 0.4,-0.4 0.6,-0.6 0.6,-0.6 l 0.1,0 0,0.1 c 0,0 -0.2,0.1 -0.4,0.4 0.1,0 0.3,-0.1 0.4,-0.1 0.3,0 0.5,0 0.7,0.1 0.1,-0.2 0.2,-0.3 0.3,-0.5 0.4,-0.9 -0.3,-0.5 -0.3,-0.5 l -0.1,0 0,-0.1 c 0,0 1.1,-0.6 0.5,0.7 -0.1,0.2 -0.2,0.4 -0.3,0.5 0.3,0.2 0.4,0.6 0.4,0.6 0,0.1 0,0.1 -0.1,0.1 -0.1,0 -0.1,0 -0.1,-0.1 0,0 0,-0.3 -0.3,-0.5 -0.4,0.5 -1,0.9 -1.4,1.1 0.6,0.5 1.2,1 1.7,1.7 0.7,-0.6 1.3,-0.7 1.5,0.3 l 0,0 0,0.1 c 0,-0.1 0.1,-0.1 0.1,-0.2 0.1,-0.2 0.2,-0.3 0.4,-0.4 0,-0.1 0,-0.1 0,-0.1 l 0.1,-0.1 c 0,0 0,0 0.1,0 0.5,-0.2 0.8,0.5 0.8,0.5 l 0,0.1 -0.1,0 c 0,0 -0.3,-0.6 -0.7,-0.4 -0.1,0.2 -0.3,0.7 -0.6,1.1 0,0.6 0,1.4 -0.2,2.2 l 0,0 c 0,0.1 -0.1,0.2 -0.1,0.2 -0.1,0.3 -0.3,0.5 -0.5,0.8 -0.9,1.1 -1.9,1.3 -2.4,1.4 0,0.3 0.1,0.6 0,1 0.6,0 1.2,0 1.8,0 1,0 1.9,-0.1 2.6,-0.2 0.4,-0.1 0.7,-0.1 0.8,-0.2 -0.1,0 -0.8,0 -0.4,-0.3 0.2,-0.1 0.4,-0.1 0.6,-0.1 0.1,0 0.2,0.1 0.2,0.2 0,0.1 0,0.2 -0.1,0.3 -0.1,0.2 -0.5,0.3 -1.1,0.4 -0.7,0.1 -1.6,0.2 -2.6,0.2 -0.6,0 -1.3,0 -1.9,0 -0.1,0.4 -0.3,0.7 -0.5,1 0.9,0.2 2,0.4 3.2,0.4 3.4,0 5,-0.6 5,-0.6 0,0 -2,1 -4.5,1.1 -0.1,0.3 -0.3,0.7 -1.1,0.7 -0.8,0 -1.9,-0.5 -2.5,-0.9 0.5,0.7 0.6,1.7 0.6,1.7 0,0.1 0,0.1 -0.1,0.1 -0.1,0 -0.1,0 -0.1,-0.1 0,0 -0.1,-1.3 -0.8,-1.9 l -0.2,0 c -0.3,0.3 -0.6,0.4 -0.8,0.6 l 2.4,2.9 -0.2,0.2 -2.4,-2.8 c 0,0 -0.1,0.1 -0.2,0.2 -0.2,0.3 -0.4,0.8 -0.9,1.3 0.3,0.1 0.9,0.3 1.3,0.8 0.7,0.9 -0.2,1.7 -0.2,1.7 l -0.1,-0.1 c 0,0 0.7,-0.8 0.1,-1.5 -0.5,-0.6 -1,-0.7 -1.3,-0.8 -0.2,0.2 -0.4,0.4 -0.7,0.6 0.2,0.3 0.4,0.7 0.5,1 0.1,0.3 0.2,0.6 0.2,0.9 0,1.1 -1,1.4 -1.9,1.4 -0.3,0 -0.5,-0.1 -0.8,-0.1 0.1,0.6 0.2,1.3 0.1,2.2 -0.2,2.9 -2.7,2.7 -2.7,2.7 0,0 2.3,-0.2 2.5,-2.7 0.1,-0.9 0,-1.6 -0.2,-2.2 -0.4,-0.1 -0.8,-0.4 -1.2,-0.6 -0.2,0.3 -0.4,0.5 -0.9,0.5 -0.1,0 -0.2,0 -0.3,-0.1 -0.2,0.1 -0.5,0 -0.7,-0.2 -0.2,-0.1 -0.4,-0.3 -0.5,-0.5 -0.4,0.6 -0.8,1.2 -1.2,1.8 -0.1,1.3 -0.2,2.6 -0.4,3.6 -0.3,1.5 -0.6,2.5 -1.4,2.2 0.5,0.1 0.8,-0.8 1.1,-2 0.2,-1 0.3,-2.1 0.4,-3.4 -0.6,0.8 -1.2,1.7 -1.9,2.4 -0.5,0.5 -1,1.1 -1.5,1.3 1.1,-1.1 2.3,-2.5 3.4,-4.1 0,-0.6 0.1,-1.2 0.1,-1.8 -1.1,1.5 -2.3,2.9 -3.3,4 -4,3.8 -1.3,-1.2 -1.1,-1 0,0 -1.7,3.3 0.9,0.7 1.1,-1.1 2.4,-2.7 3.5,-4.2 l 0,-0.1 c -0.3,-0.1 -0.5,-0.1 -0.8,-0.2 -0.1,0.1 -0.2,0.3 -0.3,0.4 -0.3,1.4 -1.1,2.4 -1.1,2.4 l -0.1,0 0,-0.1 c 0,0 0.7,-0.8 1,-1.9 -0.1,0.1 -0.2,0.2 -0.3,0.3 -1.1,1.5 -1.5,1 -1.6,0.8 l 0,-0.1 0.1,0 c 0,0 0.3,0.3 1.3,-0.8 0.2,-0.2 0.4,-0.4 0.6,-0.6 0,-0.1 0,-0.3 0.1,-0.5 l -0.1,0 c -0.4,0.2 -0.9,0.4 -1.6,0.3 -0.1,0 -0.2,0 -0.3,0 -0.2,0.3 -0.5,0.5 -0.8,0.6 -0.3,0.1 -0.7,0.2 -1.1,0.1 -0.4,-0.1 -0.8,-0.3 -1.1,-0.6 -0.4,-0.4 -0.6,-0.9 -0.7,-1.5 l 0,0 c -0.2,-1.4 0.5,-2.1 1.1,-2.5 -0.1,-0.3 -0.2,-0.5 -0.2,-0.6 -0.1,-0.1 -0.2,-0.2 -0.3,-0.3 l -0.1,0 c 0,0 0,0 0,-0.1 -0.1,-0.1 -0.2,-0.2 -0.3,-0.3 l 0,0 0,0 c -0.5,-0.5 -1,-1.1 -1.1,-1.7 -0.2,-0.9 0.3,-1.6 0.8,-2.2 l 0,0 0,0 c 0.2,-0.2 0.3,-0.3 0.5,-0.4 0.1,-0.4 0.2,-0.8 0.3,-1.2 -0.1,-0.5 -0.1,-0.9 -0.1,-1.4 0,-0.2 0,-0.5 0.1,-0.7 -0.2,0 -0.4,0.1 -0.6,0.2 -0.2,0.1 -0.4,0.2 -0.6,0.4 -0.3,0.3 -0.5,0.5 -0.5,0.8 l 0,0.1 c 0.1,0 0.2,0 0.3,0.1 0.5,0.1 0.9,0.4 1,0.8 0.1,0.2 0,0.4 0,0.5 -0.1,0.1 -0.1,0.2 -0.2,0.2 -0.1,0 -0.2,0 -0.3,0 l 0,0 c -0.2,0 -0.4,-0.2 -0.6,-0.4 -0.3,0 -1.1,0 -1.1,-0.8 0,-0.2 0.1,-0.3 0.2,-0.4 l 0,0 c 0.1,-0.1 0.3,-0.1 0.4,-0.1 0,-0.1 0,-0.1 0,-0.2 0.1,-0.4 0.3,-0.7 0.6,-1 0.2,-0.2 0.4,-0.3 0.7,-0.4 0.3,-0.1 0.5,-0.2 0.8,-0.3 0.2,-0.8 0.5,-1.6 1.1,-2.3 -0.4,-0.4 -1,-0.9 -1.8,-1.4 1.1,0.1 1.8,0.5 2.2,0.9 0.4,-0.3 0.8,-0.6 1.2,-0.7 0.1,-0.1 0.3,-0.2 0.4,-0.2 -0.3,-0.5 -1.1,-1.3 -2.7,-2.1 2,0.5 2.9,1.4 3.2,1.9 0,0 0,0 0.1,0 l 0,0 0,0 0,0 0,0 0,0 0,0 c 0.1,-0.1 0.2,-0.2 0.3,-0.4 -0.4,-0.5 -1.1,-1.3 -2.3,-2.2 1.5,0.4 2.3,1.2 2.8,1.8 1.5,-1.3 3.3,-2 5.2,-2 0.9,0 1.7,0.1 2.3,0.3 0.5,-0.7 1.2,-1.7 0.9,-2.3 -0.2,-0.4 -0.5,-0.6 -0.9,-0.5 -0.3,0 -0.7,0.1 -1.1,0.3 -0.3,0.2 -0.7,0.4 -1,0.7 -0.3,0.3 -0.4,0.5 -0.3,0.7 0,0.1 0.1,0.2 0.1,0.2 0.1,0.1 0.2,0.1 0.3,0.1 0.9,0.2 0.5,-1 0.2,-0.5 0,0.1 -0.1,0.1 -0.2,0.1 -0.8,-0.2 1.4,-0.8 0.7,0.3 -0.2,0.3 -0.5,0.4 -0.7,0.3 -0.1,0 -0.2,-0.1 -0.3,-0.2 -0.1,-0.1 -0.2,-0.2 -0.2,-0.3 -0.1,-0.3 0,-0.6 0.4,-0.9 l 0,0 c 0.3,-0.3 0.6,-0.5 1,-0.7 0.4,-0.2 0.8,-0.3 1.2,-0.3 0.4,0 0.7,0.1 0.9,0.3 l 0,0 c 0.1,0.1 0.1,0.2 0.2,0.3 0.3,0.6 -0.4,1.8 -0.9,2.5 0.2,0.4 0.6,0.6 1,0.8 l 0,0 z m -0.2,0.5 0,0 c -0.2,0.3 -0.3,0.5 -0.6,0.6 0,0.1 0.1,0.1 0.1,0.2 0.2,0.1 0.5,0.2 0.7,0.4 0.1,0.1 0.2,0.1 0.3,0.2 l 0.4,-0.4 c -0.2,-0.2 -0.4,-0.6 -0.9,-1 l 0,0 z m -2.1,0.7 c -0.3,0 -0.6,-0.1 -0.9,-0.2 0.1,0.1 0.2,0.2 0.3,0.3 0.1,0 0.4,-0.1 0.6,-0.1 l 0,0 z m 1.2,15.7 0,0 0,0 0,0 0,0 z m 0.3,0 0.1,0 c 0,0 -0.1,-0.1 -0.1,-0.2 -0.1,0 -0.1,0.1 0,0.2 -0.1,-0.1 -0.1,-0.1 0,0 l 0,0 z m 0.2,-0.1 0,0 c 0,-0.1 -0.1,-0.2 -0.1,-0.2 l 0,0 c 0.1,0.1 0.1,0.2 0.1,0.2 l 0,0 z m 0.3,0 c 0.2,-0.1 0.4,-0.1 0.6,-0.3 0.1,-0.1 0.2,-0.2 0.3,-0.2 0.1,-0.1 0.2,-0.3 0.3,-0.4 -0.1,0 -0.2,0.1 -0.3,0.1 l -0.1,0 0,0 c -0.3,0.2 -0.6,0.4 -1,0.5 0,0.1 0.1,0.2 0.2,0.3 l 0,0 z m -0.2,0.4 0,0 0,0 0,0 0,0 0,0 z m -0.3,0.1 c -0.5,0 -1,0 -1.3,-0.1 -0.4,0 -0.7,0 -1.1,-0.1 -0.3,0.1 -0.7,0.2 -1,0.2 0.5,0.5 1.6,1.4 3.2,0.3 0.1,-0.1 0.2,-0.1 0.3,-0.2 0,0 0,-0.1 -0.1,-0.1 l 0,0 z m -13,-4.3 c 0.1,-0.1 0.1,-0.1 0,0 0.1,-0.2 0.2,-0.3 0.2,-0.4 -0.1,-0.4 -0.2,-0.7 -0.3,-1.1 -0.1,-0.3 -0.1,-0.6 -0.1,-0.9 -0.1,0.6 -0.2,1.5 0.1,2.2 0.1,0 0.1,0.1 0.1,0.2 l 0,0 z m 0.4,0.1 c 0,0.1 0,0.3 0,0.4 0.1,0.1 0.2,0.3 0.4,0.4 -0.1,-0.1 -0.1,-0.3 -0.2,-0.4 l 0,0 c 0,0 0,-0.1 0,-0.2 -0.1,-0.1 -0.1,-0.2 -0.2,-0.2 l 0,0 z m 5.1,-9.6 0.1,0.1 c 0.2,0.1 0.4,-0.1 0.4,-0.1 0,0 0,0.3 -0.2,0.3 -0.1,0 -0.2,0 -0.3,0 0,0.1 0,0.2 0,0.2 0.2,0 0.4,0 0.6,0 0,-0.2 0.1,-0.4 0.1,-0.7 -0.2,-0.1 -0.4,-0.2 -0.6,-0.3 0,0.2 -0.1,0.3 -0.1,0.5 l 0,0 z m -1.4,0.3 c 0,0 -0.1,-0.4 -0.1,-1.1 l 0,0 c -0.5,0.6 -0.6,1.4 -0.6,1.9 0,0 0.1,-0.1 0.2,-0.1 0.3,-0.1 0.6,-0.3 0.9,-0.3 -0.1,-0.3 -0.2,-0.8 -0.1,-1.4 0,0.1 -0.1,0.2 -0.1,0.2 -0.2,0.3 -0.2,0.8 -0.2,0.8 l 0,0 z m 1.5,-1.5 c 0.1,-0.1 0.3,-0.3 0.4,-0.5 -0.4,0 -0.7,0.1 -1,0.2 0.1,0 0.1,0 0.2,0.1 0.2,0.1 0.3,0.1 0.4,0.2 l 0,0 z m 0.7,-0.2 c -0.1,0.1 -0.3,0.3 -0.4,0.4 0.1,0.1 0.2,0.1 0.3,0.2 0.1,-0.2 0.1,-0.4 0.1,-0.6 l 0,0 0,0 z m 6.3,-0.5 c -0.1,0 -0.3,0 -0.4,0 0.2,0.1 0.3,0.1 0.5,0.2 -0.1,-0.1 -0.1,-0.1 -0.1,-0.2 l 0,0 z m -0.2,1.6 c 0,-0.2 0,-0.5 0,-0.7 -0.2,0 -0.5,-0.1 -0.8,-0.1 0.2,0.4 0.2,0.7 0.3,1 0.1,0 0.3,-0.1 0.5,-0.2 l 0,0 z m 1.4,12.9 -0.1,0 -0.1,0.1 c 0.1,0 0.1,-0.1 0.2,-0.1 l 0,0 z m 1.1,-1.2 c 0.2,-0.1 0.3,-0.2 0.3,-0.3 0.1,-0.3 0.1,-0.5 0.1,-0.6 l -0.1,0 c -0.1,0.2 -0.2,0.4 -0.4,0.7 0.1,0 0.1,0.1 0.1,0.2 l 0,0 z m -4.8,3.9 c 0,0.1 -0.1,0.3 -0.1,0.5 0.1,0.1 0.2,0.1 0.3,0.2 0.1,-0.3 0.1,-0.5 0.1,-0.7 -0.1,0 -0.2,0 -0.3,0 l 0,0 z m -0.3,0.7 c -0.1,0.2 -0.2,0.4 -0.3,0.5 0.3,0 0.5,-0.2 0.6,-0.4 -0.1,0.1 -0.2,0 -0.3,-0.1 l 0,0 z m -2.1,-0.1 c -0.1,-0.1 -0.1,-0.2 -0.2,-0.3 -0.2,0 -0.4,0 -0.6,-0.1 l -0.2,0.2 c 0,0.6 0,1.2 0,1.7 0.3,-0.4 0.7,-1 1,-1.5 l 0,0 z m -0.3,-0.6 c 0,-0.1 0,-0.1 -0.1,-0.2 l -0.1,0 -0.1,0.1 c 0.1,0 0.2,0 0.3,0.1 l 0,0 z m -2.1,-0.9 c -0.1,0.1 -0.2,0.2 -0.3,0.2 l 0,0 c 0.2,-0.1 0.2,-0.1 0.3,-0.2 l 0,0 z m -1,-0.3 c 0.2,0 0.3,-0.1 0.5,-0.3 0.1,-0.1 0.1,-0.2 0.2,-0.2 -0.4,-0.2 -0.7,-0.4 -1.1,-0.6 -0.1,0.2 -0.3,0.3 -0.4,0.5 0.3,0.2 0.6,0.4 0.8,0.6 l 0,0 z m -1.3,0 0,0 c -0.2,0.3 -0.4,0.5 -0.5,0.6 0.3,0.1 0.7,0.2 1.1,0.3 0.5,0 0.9,0 1.2,-0.2 0,0 -0.1,0 -0.1,-0.1 l 0,0 c -0.8,-0.1 -1.1,-0.2 -1.7,-0.6 l 0,0 z m -3.7,-5.8 c 0,-0.6 0.1,-1.2 0.2,-1.6 -0.2,0.3 -0.2,0.9 -0.2,1.4 0,0.1 0,0.1 0,0.2 l 0,0 z m 9.6,-10.9 c -0.7,-0.1 -1.3,0.3 -1.7,0.5 0.1,0 0.1,0 0.2,0.1 0.3,0.1 0.5,0.3 0.7,0.5 0.5,-0.3 1,-0.5 1.6,-0.6 -0.3,-0.2 -0.5,-0.4 -0.8,-0.5 l 0,0 z m -2,0.3 c 0.3,-0.2 0.6,-0.4 1,-0.5 -0.3,-0.1 -0.7,-0.1 -1.1,-0.1 0,0.1 0.1,0.3 0.1,0.6 l 0,0 z m 11.8,4.6 c -0.1,0 -0.3,0 -0.5,0.2 0.1,0.2 0.3,0.5 0.3,0.8 0.2,-0.2 0.3,-0.4 0.5,-0.5 -0.1,-0.2 -0.2,-0.4 -0.3,-0.5 l 0,0 z m -0.9,0.6 c -0.2,0.5 -0.4,1.1 -0.4,1.5 0,0.1 0,0.1 0,0.2 0,0.1 0,0.1 0,0.2 0.2,-0.3 0.4,-0.6 0.7,-0.9 -0.1,-0.4 -0.2,-0.7 -0.3,-1 l 0,0 z m -0.6,0.4 c 0.1,-0.3 0.2,-0.6 0.3,-0.8 -0.5,-0.8 -1.5,-1.3 -2.3,-1.7 0,0.1 0.1,0.2 0.1,0.3 0.7,0.4 1.6,1.1 1.9,2.2 l 0,0 z m 0.8,-1.2 c 0.1,-0.1 0.3,-0.2 0.4,-0.2 -1,-1 -2.4,-1.7 -3.3,-2 0,0.1 0,0.2 -0.1,0.2 1,0.4 2.2,1 3,2 l 0,0 z m 1.6,4.1 c 0.3,-0.1 0.7,-0.3 1,-0.8 l 0,0 c 0.2,-0.6 0.3,-1.3 0.2,-1.8 -0.2,0.2 -0.3,0.5 -0.6,0.7 l -0.1,0.2 c 0.1,0.7 -0.2,1.3 -0.5,1.7 l 0,0 z m 0.5,0.1 c -0.4,0.2 -0.7,0.3 -1,0.3 -0.4,0.3 -1,0.5 -1.5,0.6 l 0,0 c 0,0 0,0.1 0.1,0.1 0.4,0.1 1,0.1 1.7,-0.2 0.2,-0.2 0.4,-0.5 0.7,-0.8 -0.1,0 0,0 0,0 l 0,0 z m -3.6,2.1 c 0.3,-0.1 0.5,-0.3 0.7,-0.8 0,-0.1 -0.1,-0.3 -0.2,-0.4 0,0 -0.1,0 -0.1,0.1 -0.1,0.5 -0.3,0.8 -0.4,1.1 l 0,0 z m 0.7,-2.1 c 0,-0.1 -0.1,-0.3 -0.1,-0.4 -0.1,0.2 -0.1,0.3 -0.2,0.4 l 0.1,0.1 c 0.1,0 0.2,-0.1 0.2,-0.1 l 0,0 z m 0.1,-0.8 c 0.1,0.1 0.1,0.3 0.1,0.4 0.1,-0.2 0.2,-0.3 0.3,-0.5 -0.1,0.1 -0.2,0.1 -0.4,0.1 l 0,0 z m -0.1,2.7 c -0.3,0.4 -0.7,0.6 -1,0.6 l 0,0.1 c 0.3,0 0.6,0 0.9,0 l 0,0 c 0.2,-0.3 0.2,-0.5 0.1,-0.7 l 0,0 z m 1.4,-0.7 c -0.3,0 -0.6,0 -0.9,0 0,0.1 0.1,0.1 0.1,0.2 0.2,-0.1 0.5,-0.1 0.8,-0.2 l 0,0 z m -5.1,6.7 c 0,0.1 0.1,0.1 0,0.1 0,0.1 0,0.1 -0.1,0 0,0 -0.1,0 -0.1,-0.1 -0.1,0.1 -0.2,0.1 -0.3,0.2 -0.7,0.4 -1.4,0.7 -2,0.7 0.2,0.3 0.5,0.8 0.7,1.6 0.3,0.1 0.6,0.1 0.8,0.1 0.9,0 1.8,-0.1 1.8,-1.1 0,-0.3 -0.1,-0.6 -0.1,-0.8 -0.1,-0.3 -0.3,-0.7 -0.5,-1 0,0.1 -0.1,0.2 -0.2,0.3 l 0,0 z m -2.7,1 c 0,0 -0.1,0 -0.2,0 0,0.2 0,0.6 -0.1,0.9 0.3,0.2 0.7,0.4 1,0.5 -0.2,-0.7 -0.5,-1.1 -0.7,-1.4 l 0,0 z m -4,-0.1 0,0 0,0 0,0 0,0 0,0 z m 1,-0.9 c 0.2,0.1 0.4,0.2 0.6,0.2 0.2,0 0.3,-0.1 0.4,-0.2 l 0.2,-0.3 c -0.4,0.1 -0.7,0.1 -0.9,0.2 -0.1,0 -0.2,0 -0.3,0.1 l 0,0 0,0 z m -3.2,-2 c 0.1,0.2 0.3,0.4 0.6,0.5 0.2,-0.2 0.4,-0.4 0.5,-0.8 l -0.4,-0.5 c -0.2,0.3 -0.4,0.5 -0.7,0.8 l 0,0 z m 1.2,0.8 c 0.2,0 0.5,0 0.7,-0.2 0,-0.4 0,-0.7 0,-1 l -0.1,0.1 c -0.2,0.6 -0.4,0.9 -0.6,1.1 l 0,0 z m 0.9,-0.3 c 0.2,-0.2 0.3,-0.3 0.4,-0.4 l -0.3,-0.5 0,0 -0.1,0.9 0,0 z m 0.5,0.6 c 0.1,0 0.5,0.1 0.8,0.1 0.2,-0.2 0.3,-0.4 0.4,-0.6 -0.2,-0.1 -0.4,-0.2 -0.7,-0.3 -0.1,0.2 -0.2,0.3 -0.4,0.5 0.1,0.1 0,0.2 -0.1,0.3 l 0,0 z m 1.1,0.2 c 0.2,0 0.3,0 0.4,0 l 0.1,0 c 0.1,0 0.2,-0.1 0.3,-0.1 0.1,0 0.2,-0.1 0.3,-0.2 l 0,-0.1 c -0.1,-0.1 -0.2,-0.1 -0.2,-0.1 -0.1,0 -0.3,-0.1 -0.6,-0.2 0,0.3 -0.2,0.5 -0.3,0.7 l 0,0 z m -3.3,-11.8 0.1,0.9 -0.2,0.2 c -0.1,0 -0.3,-0.1 -0.4,-0.1 -0.2,0 -0.3,-0.1 -0.5,-0.1 0.2,-0.2 0.4,-0.4 0.6,-0.6 0.2,-0.2 0.3,-0.2 0.4,-0.3 l 0,0 z m 3.9,-1.9 c 0.3,0 0.8,-0.1 1.4,-0.1 0.2,0 0.4,0 0.5,0 -0.1,-0.2 -0.2,-0.5 -0.4,-0.8 -0.8,0.1 -1.4,0.2 -1.8,0.4 0.2,0.2 0.3,0.4 0.3,0.5 l 0,0 z m 2.1,0.1 c -0.2,0 -0.4,0 -0.6,0 -0.3,0 -0.6,0 -0.9,0.1 0.6,0 1.2,0.2 1.6,0.2 -0.1,-0.2 -0.1,-0.2 -0.1,-0.3 l 0,0 z m -10.7,6.7 c 0.1,0.1 0,0.3 -0.1,0.4 0,0.3 0.1,0.6 0.1,0.9 0.1,0.4 0.2,0.7 0.3,1 0.1,-0.4 0.2,-0.7 0.6,-1.1 -0.2,-0.3 -0.3,-0.8 -0.5,-1.2 -0.5,-0.1 -0.4,0 -0.4,0 l 0,0 z m -0.1,-0.5 c 0.1,0 0.2,0 0.3,0 0,-0.1 0,-0.1 0,-0.2 -0.1,0 -0.2,0.1 -0.3,0.2 l 0,0 0,0 z m 1,0 c 0.2,0 0.4,0.1 0.6,0.1 -0.1,-0.5 -0.1,-1 0,-1.4 0.1,-0.5 0.4,-0.9 0.7,-1.2 0,-0.1 -0.1,-0.2 -0.1,-0.3 -0.5,0.6 -1.2,1.4 -1.2,2.8 l 0,0 z m 1.1,0.2 c 0.1,0 0.2,0.1 0.2,0.1 0,-0.4 0,-0.9 0.3,-1.4 0.1,-0.1 0.2,-0.3 0.2,-0.4 0,-0.1 0,-0.4 0,-0.8 0,0 -0.1,0 -0.1,0.1 -0.4,0.2 -0.7,0.6 -0.8,1.1 0.1,0.3 0.1,0.8 0.2,1.3 l 0,0 z m 0.3,0.8 -0.1,0 0.1,0 0,0 0,0 z m -0.6,-0.2 c -0.1,0 -0.1,0 -0.2,-0.1 -0.2,-0.1 -0.4,-0.1 -0.6,-0.1 0,0.1 0,0.2 0,0.3 0.1,0.2 0.1,0.4 0.2,0.5 0.2,-0.1 0.4,-0.2 0.6,-0.3 0.1,-0.1 0.1,-0.2 0,-0.3 l 0,0 z m 3.4,8.2 0,0 0,0 0,0 0,0 z m 15.9,-12.7 -0.1,0.1 c -0.1,0.1 -0.2,0.2 -0.2,0.4 l 0,0.1 c 0.1,-0.2 0.2,-0.4 0.3,-0.6 l 0,0 z m -0.5,0.8 c -0.1,0.2 -0.2,0.4 -0.3,0.5 0.1,-0.1 0.2,-0.3 0.3,-0.4 l 0,-0.1 0,0 z m -0.7,0.9 c 0.2,-0.4 0.4,-0.8 0.6,-1.2 0,-0.2 0,-0.3 -0.1,-0.3 l 0,0 0,0 0,0 c -0.1,-0.7 -0.6,-0.6 -1.1,-0.1 0.4,0.5 0.6,1 0.6,1.6 l 0,0 z m -18,6.9 c 0.2,-0.3 0.5,-0.6 0.9,-0.8 -0.3,-0.3 -0.7,-0.7 -1.1,-1.1 -0.4,0.4 -0.5,0.9 -0.4,1.3 0,0.1 0.3,0.4 0.6,0.6 l 0,0 z m 1,-0.6 c -0.4,0.2 -0.6,0.5 -0.8,0.8 0.3,0.2 0.5,0.3 0.6,0.3 l 0.1,-0.1 0,0 c 0,-0.1 0,-0.2 0,-0.4 0,-0.2 0,-0.5 0.1,-0.6 l 0,0 z m 3.8,-11.9 c 0,0.1 0,0.1 0,0.2 0,0.3 0,0.6 -0.1,0.9 0.2,-0.2 0.5,-0.5 0.7,-0.7 -0.1,-0.1 -0.3,-0.2 -0.5,-0.3 0,0 0,-0.1 -0.1,-0.1 l 0,0 z m -0.1,1.8 c 0,0.2 -0.1,0.4 -0.1,0.6 0.1,-0.1 0.2,-0.3 0.3,-0.4 l -0.2,-0.2 0,0 z m -0.5,-2.6 c 0,-0.2 -0.1,-0.4 -0.1,-0.6 -0.3,0.2 -0.6,0.4 -0.9,0.7 0.3,-0.1 0.6,-0.1 1,-0.1 l 0,0 z m 11.4,2.8 c 0.3,-0.2 0.9,-0.6 1.4,-1.1 -0.1,0 -0.3,-0.1 -0.5,0 -0.2,0 -0.4,0.1 -0.7,0.2 -0.2,0.2 -0.3,0.4 -0.5,0.8 0.1,0 0.2,0 0.3,0.1 l 0,0 z m -0.5,-0.3 c 0.1,-0.2 0.2,-0.4 0.4,-0.6 -0.3,0.1 -0.5,0.2 -0.7,0.4 0.1,0.1 0.2,0.1 0.3,0.2 l 0,0 z m 2.3,4.7 c -0.3,0.2 -0.6,0.4 -1,0.5 -0.1,0.4 -0.4,0.8 -0.6,1.1 0.8,-0.3 1.5,-0.8 1.6,-1.6 l 0,0 z m -2.9,0.6 c -0.1,0 -0.2,0 -0.3,0 0.1,0.1 0.2,0.2 0.2,0.3 0.1,-0.1 0.1,-0.2 0.1,-0.3 l 0,0 z m -0.5,-0.2 c 0.2,0 0.4,0 0.6,0.1 0.1,-0.2 0.1,-0.5 0.1,-0.8 0.1,-1.2 -0.5,-2 -1.1,-2.5 0.1,0.4 0.1,0.7 0.1,1 0,0.4 0.1,0.8 0.1,1.2 0,0.3 0,0.6 0,0.8 0,0.1 0.1,0.2 0.2,0.2 l 0,0 z m 1.2,0.1 c 0.2,0 0.3,0 0.5,-0.1 0.1,-0.3 0.2,-0.7 0.2,-1 -0.3,0.4 -0.5,0.8 -0.7,1.1 l 0,0 z m 1.2,-0.2 c 0.4,-0.1 0.7,-0.3 1,-0.5 0,-0.1 0,-0.1 0,-0.2 0,-0.6 -0.2,-1.1 -0.4,-1.6 -0.2,0.2 -0.3,0.4 -0.5,0.6 0,0.1 0,0.2 0,0.3 0.1,0.5 0.1,1 -0.1,1.4 l 0,0 z m -2.9,-1.2 c -0.1,0.4 -0.3,0.6 -0.4,0.8 0.1,0 0.3,0.1 0.4,0.2 0,-0.2 0,-0.5 0,-0.7 0,-0.1 0,-0.2 0,-0.3 l 0,0 z m -0.8,0 c 0,0 0,0.1 0.1,0.1 l 0,0.1 c 0.1,-0.2 0.2,-0.5 0.1,-1.2 -0.2,-0.9 -0.6,-0.2 -0.6,-0.2 0.1,0.3 0.3,0.8 0.4,1.2 l 0,0 z m 0.4,1.2 c 0.1,0.6 0,1.1 0,1.4 0.1,0 0.2,0 0.3,0 0,-0.3 0.1,-0.7 0.1,-1.2 -0.2,0 -0.3,-0.1 -0.4,-0.2 l 0,0 z m -11.3,-3.2 c 0.2,-0.2 0.3,-0.3 0.6,-0.5 0.3,-0.2 0.6,-0.3 0.9,-0.4 -0.1,0 -0.2,0 -0.4,0.1 l 0,0 0,0 c -0.3,0.1 -0.7,0.2 -1,0.4 -0.1,0.1 -0.2,0.1 -0.3,0.2 0,0 0.1,0.2 0.2,0.2 l 0,0 z m -0.7,3.2 c -0.3,0.5 -0.3,0.9 -0.3,1.2 0.1,-0.3 0.2,-0.7 0.5,-1.2 0.2,-0.4 0.5,-0.7 0.7,-0.9 -0.3,0.2 -0.7,0.4 -0.9,0.9 l 0,0 z m -1.9,3 c -0.6,0.7 -0.4,1.6 -0.4,1.6 l 0,0 c 0.1,0.1 0.1,0.2 0.2,0.4 0,-0.5 0.1,-1 0.6,-1.5 -0.2,-0.1 -0.3,-0.3 -0.4,-0.5 l 0,0 z m 0.7,-7.5 c -0.1,-0.1 -0.2,-0.2 -0.3,-0.4 -0.5,0.5 -0.7,1.2 -0.9,1.8 0.6,0 1.1,0.1 1.4,0.2 0,-0.1 0.1,-0.2 0.1,-0.3 -0.1,-0.2 -0.3,-0.7 -0.3,-1.3 l 0,0 z m 9.9,-4.3 0,0 c 0,-0.1 -0.1,-0.1 -0.2,-0.2 0,0.1 0.1,0.1 0.2,0.2 l 0,0 z m 3.9,9.2 c 0,0.4 -0.1,0.8 -0.1,1.1 0.1,0 0.2,0 0.4,0 0.1,-0.1 0.2,-0.3 0.3,-0.4 -0.2,-0.3 -0.4,-0.5 -0.6,-0.7 l 0,0 z m -0.2,3.3 0,0 0,0 c 0,-0.4 0,-0.6 -0.1,-0.8 l 0,0 c -0.1,0.1 -0.2,0.2 -0.3,0.2 0,0.1 0,0.2 0,0.3 0,0.1 0,0.1 0,0.2 0.1,0.1 0.3,0.1 0.4,0.1 l 0,0 z m 1.5,0.4 c -0.3,0 -0.6,0 -0.8,0 0,0.2 -0.1,0.5 -0.1,0.7 0.2,0 0.3,0.1 0.5,0.1 0.1,-0.2 0.3,-0.5 0.4,-0.8 l 0,0 z m -1,-1.1 c 0.1,-0.2 0.2,-0.3 0.2,-0.5 -0.1,0.1 -0.2,0.1 -0.3,0.2 0.1,0.1 0.1,0.2 0.1,0.3 l 0,0 z m -0.3,2.4 c -0.1,0.1 -0.1,0.1 -0.1,0.1 l -0.2,-0.2 -0.1,0 0.2,0.4 c 0.1,0 0.2,-0.1 0.4,-0.2 l -0.2,-0.1 0,0 z m -12.5,1.3 0,0 c 0.3,0.2 0.6,0.2 0.6,0.2 0,0 -0.2,-0.2 -0.3,-0.3 -0.1,-0.1 -0.3,-0.5 -0.3,-0.5 0,0 -0.1,0.4 0,0.6 l 0,0 z m 3.1,2.1 c -0.2,0 -0.3,-0.1 -0.5,-0.1 -0.1,0.2 -0.2,0.6 -0.5,0.8 0.1,0 0.2,0.1 0.3,0.1 0.2,-0.2 0.4,-0.5 0.7,-0.8 l 0,0 z m -6.2,-0.7 c 0,-0.1 0,-0.1 0.1,-0.1 0.1,0 0.1,0 0.1,0.1 0,0 0.2,2.5 1.6,1.6 -1.1,-0.6 -1.5,-1.6 -1.5,-1.6 0,-0.1 0,-0.2 0.1,-0.2 0.1,0 0.2,0 0.2,0.1 0,0 0.4,1 1.5,1.5 0.2,-0.1 0.3,-0.3 0.5,-0.6 l 0.1,-0.1 c -0.3,-0.2 -0.5,-0.4 -0.8,-0.6 -0.6,-0.6 -1,-1.3 -1.3,-1.8 -0.6,0.4 -1.1,1.1 -1,2.3 l 0,0 c 0.1,0.6 0.3,1.1 0.6,1.4 0.3,0.3 0.6,0.5 1,0.5 0.3,0.1 0.7,0 1,-0.1 0.2,-0.1 0.4,-0.2 0.6,-0.4 -0.3,-0.1 -0.5,-0.2 -0.8,-0.3 -1.7,1.4 -2,-1.7 -2,-1.7 l 0,0 z m 2.9,0.4 0.1,-0.1 c -0.6,-0.5 -1.3,-1.2 -1.8,-2.2 l -0.1,-0.1 c 0,0 -0.1,0 -0.1,0.1 0.2,0.5 0.6,1.2 1.2,1.7 0.1,0.3 0.4,0.5 0.7,0.6 l 0,0 z m 0.3,-0.4 0.3,-0.4 -0.6,0.2 c 0.1,0.1 0.2,0.2 0.3,0.2 l 0,0 z m 1,-1.3 c 0.2,-0.3 0.4,-0.6 0.6,-0.8 -0.2,-0.1 -0.6,-0.3 -0.9,0 -0.3,0.2 0.1,0.6 0.3,0.8 l 0,0 z m -1.1,1.7 0,0 c 0.1,0.2 0.3,0.3 0.4,0.4 -0.1,-0.1 -0.2,-0.2 -0.4,-0.4 l 0,0 z m 3.2,0.5 c -0.2,0.3 -0.4,0.5 -0.6,0.7 0.2,0.1 0.4,0.1 0.6,0.2 0,-0.3 0,-0.6 0,-0.9 l 0,0 z m -3.9,-12.5 c 0.1,-0.1 0.2,-0.2 0.3,-0.3 -0.1,-0.4 -0.1,-1.3 0.3,-2.2 -0.1,0 -0.2,0.1 -0.3,0.1 -0.8,0.8 -0.5,1.9 -0.3,2.4 l 0,0 z m 2.2,-1.1 c 0.1,0 0.3,0 0.4,-0.1 -0.1,-0.3 -0.1,-0.7 0.1,-1.1 -0.2,-0.1 -0.4,-0.1 -0.6,-0.1 -0.2,0.6 -0.1,1 0.1,1.3 l 0,0 z m -2.8,2.1 c -0.3,-0.1 -0.8,-0.2 -1.3,-0.2 0,0.3 -0.1,0.5 -0.1,0.8 0,0.2 0,0.5 0,0.7 0.5,-0.7 1.1,-1.1 1.4,-1.3 l 0,0 z m -3.5,1.7 c 0,0.1 0.1,0.2 0.1,0.3 0,0.1 0.1,0.2 0.2,0.3 0.2,0.2 0.3,0.3 0.5,0.3 l 0,0 c 0.1,0 0.1,0 0.1,0 0,0 0.1,0 0.1,-0.1 0,-0.1 0,-0.1 0,-0.3 -0.1,-0.2 -0.4,-0.4 -0.8,-0.5 -0.1,0.1 -0.1,0.1 -0.2,0 l 0,0 z m -0.2,0.5 c -0.1,-0.1 -0.1,-0.3 -0.1,-0.5 -0.1,0 -0.2,0 -0.3,0.1 l 0,0 -0.1,0.1 c 0,0.3 0.3,0.4 0.5,0.3 0,0.1 0,0 0,0 l 0,0 z m 10.1,-6.1 c 0.1,0.1 0.1,0.2 0.2,0.2 0.4,-0.2 1,-0.4 1.8,-0.5 -0.1,-0.1 -0.2,-0.2 -0.2,-0.3 -0.1,0 -0.1,0 -0.2,0 -0.7,0.2 -1.2,0.3 -1.6,0.6 l 0,0 z m -0.1,1.2 c 0,-0.1 -0.1,-0.2 -0.1,-0.3 -0.2,0.1 -0.3,0.2 -0.4,0.3 0.2,0 0.3,0 0.5,0 l 0,0 z m 3.1,-1.5 c 0.2,0 0.5,0 0.7,0 -0.2,-0.1 -0.5,-0.1 -0.8,-0.2 0,0.1 0.1,0.1 0.1,0.2 l 0,0 z m 9,12.7 c -0.1,0.1 -0.2,0.3 -0.4,0.3 -0.2,0 -0.3,-0.2 -0.4,-0.3 0.3,0 0.6,0 0.8,0 l 0,0 z m -20.1,-5.9 c 0,0.1 0,0.2 -0.1,0.2 l 0.1,-0.1 c 0.1,0.1 0,0 0,-0.1 l 0,0 z m -1.2,3.5 c -0.1,-0.2 -0.1,-0.5 -0.1,-0.7 0,-0.2 0,-0.5 0,-0.7 -0.1,0.3 -0.1,0.6 -0.1,0.9 0.1,0.2 0.1,0.4 0.2,0.5 l 0,0 z m 15.5,-0.8 c 0.1,-0.1 0.2,-0.1 0.3,-0.2 l 0,-0.1 c 0,-0.3 -0.3,-0.4 -0.3,-0.4 0,0 0,0.4 0,0.7 -0.1,0 -0.1,0 0,0 l 0,0 z m -10,1.5 c 0.3,0 0.7,-0.1 0.7,-0.1 0,0 -0.1,0.2 -0.3,0.3 -0.1,0 -0.4,-0.2 -0.4,-0.2 l 0,0 z m 7.8,1.9 c 0,0 0.5,0.2 0.8,-0.3 0.4,-0.4 0.2,-1 0.2,-1 0,0 -0.1,0.4 -0.5,0.8 -0.3,0.4 -0.5,0.5 -0.5,0.5 l 0,0 z m -0.1,-0.8 c 0,0 0.2,0.1 0.5,-0.1 0.3,-0.2 0.1,-0.5 0.1,-0.5 l -0.6,0.6 0,0 z m 1.2,1 c 0,0 0.4,-0.1 0.5,-0.5 0.1,-0.4 0.1,-0.6 0.1,-0.6 0,0 0.3,0.5 0.1,0.8 -0.2,0.3 -0.7,0.3 -0.7,0.3 l 0,0 z m 0.4,-7 c 0,0 0.1,0.3 0.2,0.3 0.2,0 0.2,0 0.2,0 0,0 0.1,0.4 -0.2,0.3 -0.2,-0.1 -0.2,-0.6 -0.2,-0.6 l 0,0 z m -0.2,-0.9 c 0.3,0.3 0.6,0.8 0.6,0.8 0,0 -0.3,-0.1 -0.5,-0.2 -0.2,-0.2 -0.1,-0.6 -0.1,-0.6 l 0,0 z m 0.2,-1.2 -0.7,-0.9 c 0,0 0.5,-0.1 0.7,0.2 0.2,0.2 0,0.7 0,0.7 l 0,0 z m -1.2,-0.1 c 0,0 0.1,-0.5 -0.4,-1 -0.5,-0.5 -0.9,0 -0.9,0 0,0 0.6,0.2 0.8,0.4 0.2,0.3 0.5,0.6 0.5,0.6 l 0,0 z m -8.5,3.7 c 0,-0.1 0.3,-0.4 0.3,-0.4 0,0 -0.3,0 -0.3,0.1 -0.1,0.2 0,0.3 0,0.3 l 0,0 z m -1,2.7 c 0,0 0.2,0.1 0.5,0.2 0.2,0 0.4,0 0.4,0 0,0 -0.5,0.3 -0.8,0.1 -0.2,-0.1 -0.1,-0.3 -0.1,-0.3 l 0,0 z m 1.3,-0.5 c 0,0 -0.1,0.3 -0.1,0.6 0,0.3 0.3,0.5 0.3,0.5 0,0 -0.2,-0.5 -0.2,-1.1 l 0,0 z m 2.7,2.8 c 0,0 0.4,0.3 0.8,0.4 0.1,0 0.2,0 0.2,0.1 l 0,0 0,0 0,0 0,0 0,0 0,0 0,0 0,0 0,0 0,0 0,0 0,0 0,0 0,0 0,0 0,0 0,0 0,0 0,0 0,0 0,0 0,0 0,0 0,0 0,0 0,0 0,0 0,0 0,0 0,0 0,0 0,0 0,0 0,0 0,0 0,0 0,0 0,0 0,0 0,0 0,0 0,0 0,0 0,0 0,0 0,0 0,0 0,0 0,0 0,0 0,0 0,0 0,0 0,0 0,0 0,0 0,0 0,0 0,0 0,0 0,0 0,0 0,0 0,0 0,0 0,0 0,0 0,0 0,0 0,0 0,0 0,0 0,0 0,0 0,0 0,0 0,0 0,0 c 0.2,0 0.3,0 0.3,0 0,0 -0.2,0.1 -0.4,0.2 l 0,0 0,0 0,0 0,0 0,0 0,0 0,0 0,0 0,0 0,0 0,0 0,0 0,0 0,0 0,0 0,0 0,0 0,0 0,0 0,0 0,0 0,0 0,0 0,0 0,0 0,0 0,0 0,0 0,0 0,0 0,0 0,0 0,0 0,0 0,0 0,0 0,0 0,0 0,0 0,0 0,0 0,0 0,0 0,0 0,0 0,0 0,0 0,0 0,0 0,0 0,0 0,0 0,0 0,0 0,0 0,0 0,0 0,0 0,0 0,0 0,0 0,0 0,0 0,0 0,0 0,0 0,0 0,0 0,0 0,0 0,0 0,0 c -0.1,0 -0.2,0 -0.3,0 -0.5,-0.2 -0.6,-0.7 -0.6,-0.7 l 0,0 z m 3.2,1.6 c 0,0 0.1,0.2 0.3,0.3 0.2,0.1 -0.1,0.1 -0.2,0 -0.3,-0.1 -0.1,-0.3 -0.1,-0.3 l 0,0 z m 0.3,-0.4 c 0,0 0.7,0.2 1.2,0 0.5,-0.2 0.6,-0.5 0.6,-0.5 0,0 -0.4,1.2 -0.9,1.1 -0.4,0 -0.9,-0.6 -0.9,-0.6 l 0,0 z"
     inkscape:connector-curvature="0" /><circle
     id="Oval_45_"
     cx="23"
     cy="263"
     r="22"
     style="fill:none;stroke:#000000;stroke-width:2" /><path
     id="Shape_46_"
     d="m 13.8,253.8 9.2,0 0,9.2 9.2,0 0,9.2 -9.2,0 0,-9.2 -9.2,0 0,-9.2 z M 13,273 l 20,0 0,-20 -20,0 0,20 z"
     inkscape:connector-curvature="0" /><circle
     id="Oval_46_"
     cx="83"
     cy="263"
     r="22"
     style="fill:none;stroke:#000000;stroke-width:2" /><path
     id="Shape_47_"
     d="m 91.8,260.9 1.6,0 0,4.8 -1.6,0 0,-4.8 z m -7.8,0 1.6,0 0,4.8 -1.6,0 0,-4.8 z m -11.4,0 1.6,0 0,4.8 -1.6,0 0,-4.8 z m 16.6,-2.2 0,9.1 4.1,0 0,1.1 -4.1,0 0,2.1 6.8,0 0,-12.3 -6.8,0 0,0 z m -7.8,0 0,9.1 4.2,0 0,1.1 -4.2,0 0,2.1 6.8,0 0,-12.3 -6.8,0 0,0 z m -3.6,9.1 2.6,0 0,-9.1 -2.6,0 0,9.1 z m 0,-10.1 2.6,0 0,-2.7 -2.6,0 0,2.7 z m -3.6,-2.7 0,3.7 -4.2,0 0,9.1 6.8,0 0,-12.8 -2.6,0 z"
     inkscape:connector-curvature="0" /><circle
     id="Oval_47_"
     cx="143"
     cy="263"
     r="22"
     style="fill:none;stroke:#000000;stroke-width:2" /><path
     id="Shape_48_"
     d="m 139.1,268.8 c 0,0 -0.1,0 0,0 -0.3,0.1 -0.5,0.3 -0.5,0.6 0,0.1 0.1,0.2 0.1,0.3 1.1,1.2 2.8,1.4 4.1,1.4 0,0 0,0 0.1,0 l 0,0 0,0 c 1.3,0 3,-0.2 4.2,-1.4 0.2,-0.2 0.2,-0.5 0,-0.7 -0.1,-0.1 -0.3,-0.2 -0.4,-0.2 -0.1,0 -0.2,0.1 -0.3,0.2 -0.8,0.8 -2.2,1 -3.4,1.1 l 0,0 0,0 -0.1,0 c -1.2,0 -2.6,-0.2 -3.4,-1.1 -0.1,-0.1 -0.3,-0.2 -0.4,-0.2 l 0,0 z m 7.8,-6.4 c -1,0 -1.8,0.8 -1.8,1.9 0,1 0.8,1.9 1.8,1.9 1,0 1.8,-0.9 1.8,-1.9 0,-1 -0.8,-1.9 -1.8,-1.9 l 0,0 z m -7.8,0 c -1,0 -1.8,0.9 -1.8,1.9 0,1 0.8,1.9 1.8,1.9 1,0 1.8,-0.9 1.8,-1.9 -0.1,-1 -0.9,-1.9 -1.8,-1.9 l 0,0 z m 13.9,-2.2 c 1.1,0 2,0.9 2,2.1 0,0.7 -0.3,1.3 -0.8,1.6 -0.4,-1.2 -1.2,-2.4 -2.3,-3.3 0.3,-0.3 0.7,-0.4 1.1,-0.4 l 0,0 z m -20.1,0 c 0.4,0 0.8,0.1 1.1,0.4 -1.1,0.9 -1.9,2 -2.4,3.3 -0.4,-0.4 -0.7,-0.9 -0.7,-1.6 0.1,-1.2 0.9,-2.1 2,-2.1 l 0,0 z m 10,-1.5 c 3,0 5.7,0.8 7.6,2.2 1.9,1.3 3,3.1 3,5 0,1.9 -1.1,3.7 -3,5 -1.9,1.3 -4.6,2.2 -7.6,2.2 -3,0 -5.7,-0.8 -7.6,-2.2 -1.9,-1.3 -3.1,-3.1 -3.1,-5 0,-1.9 1.1,-3.6 3.1,-5 1.9,-1.4 4.6,-2.2 7.6,-2.2 l 0,0 z m 8.9,-6.6 c 0.8,0 1.4,0.7 1.4,1.5 0,0.8 -0.6,1.5 -1.4,1.5 -0.8,0 -1.4,-0.7 -1.4,-1.5 -0.1,-0.8 0.6,-1.5 1.4,-1.5 l 0,0 z m 0,-1.1 c -1,0 -1.9,0.7 -2.2,1.6 l -4.5,-1.1 c -0.1,0 -0.1,0 -0.2,0 -0.2,0 -0.4,0.2 -0.4,0.4 l -1.8,5.9 c -3,0.1 -5.7,0.9 -7.7,2.3 -0.5,-0.5 -1.2,-0.8 -2,-0.8 -1.6,0 -3,1.4 -3,3.1 0,1.1 0.6,2.1 1.4,2.7 0,0.3 -0.1,0.6 -0.1,0.9 0,2.3 1.4,4.4 3.5,5.8 2.1,1.5 5,2.3 8.1,2.3 3.2,0 6,-0.9 8.1,-2.3 2.1,-1.5 3.5,-3.5 3.5,-5.8 0,-0.3 0,-0.6 -0.1,-0.9 0.9,-0.5 1.5,-1.5 1.5,-2.7 0,-1.7 -1.3,-3.1 -3,-3.1 -0.8,0 -1.5,0.3 -2,0.8 -1.9,-1.3 -4.5,-2.2 -7.4,-2.3 l 1.5,-5.1 4.1,1 c 0,1.4 1.1,2.5 2.4,2.5 1.3,0 2.4,-1.2 2.4,-2.6 0.3,-1.4 -0.8,-2.6 -2.1,-2.6 l 0,0 z"
     inkscape:connector-curvature="0" /><circle
     id="Oval_48_"
     cx="203"
     cy="263"
     r="22"
     style="fill:none;stroke:#000000;stroke-width:2" /><path
     id="Shape_49_"
     d="m 210.9,262.5 0,3.4 c 0,0.7 -0.6,1.2 -1.3,1.2 -0.7,0 -1.3,-0.6 -1.3,-1.2 l 0,-3.3 -2.4,0.7 -1.6,-0.8 0,3.3 c 0,2.9 2.4,5.2 5.4,5.2 3,0 5.4,-2.4 5.4,-5.3 l 0,-3.3 -4.2,0.1 0,0 z m -6.6,-2.8 1.6,0.8 2.4,-0.7 0,-1.7 c -0.1,-2.8 -2.4,-5.1 -5.4,-5.1 -2.9,0 -5.3,2.3 -5.4,5.1 l 0,7.6 c 0,0.7 -0.6,1.2 -1.3,1.2 -0.7,0 -1.3,-0.6 -1.3,-1.2 l 0,-3.2 -3.9,0 0,3.3 c 0,2.9 2.4,5.3 5.4,5.3 2.9,0 5.3,-2.3 5.4,-5.2 l 0,-7.5 c 0,-0.7 0.6,-1.2 1.3,-1.2 0.7,0 1.3,0.6 1.3,1.2 l 0,1.3 -0.1,0 z"
     inkscape:connector-curvature="0" /><circle
     id="Oval_49_"
     cx="-337"
     cy="323"
     r="22"
     style="fill:none;stroke:#000000;stroke-width:2" /><path
     id="Shape_50_"
     d="m -328,327.1 c -0.5,1.1 -0.7,1.7 -1.4,2.7 -0.9,1.4 -2.1,3.2 -3.7,3.2 -1.4,0 -1.7,-0.9 -3.6,-0.9 -1.9,0 -2.2,0.9 -3.6,0.9 -1.5,0 -2.7,-1.6 -3.6,-3 -2.5,-3.9 -2.7,-8.6 -1.2,-11.1 1.1,-1.8 2.8,-2.8 4.4,-2.8 1.6,0 2.7,0.9 4,0.9 1.3,0 2.1,-0.9 4,-0.9 1.4,0 2.9,0.8 4,2.2 -3.4,2.1 -2.9,7.4 0.7,8.8 l 0,0 z m -6.1,-12.5 c 0.7,-0.9 1.2,-2.2 1,-3.6 -1.1,0.1 -2.4,0.8 -3.2,1.8 -0.7,0.9 -1.3,2.2 -1,3.5 1.2,0 2.5,-0.7 3.2,-1.7 l 0,0 z"
     inkscape:connector-curvature="0" /><circle
     id="Oval_50_"
     cx="-277"
     cy="323"
     r="22"
     style="fill:none;stroke:#000000;stroke-width:2" /><path
     id="Shape_51_"
     d="m -274.2,313.8 0.2,-0.4 0.2,-0.4 0.5,-0.8 c 0.1,-0.1 0,-0.2 -0.1,-0.3 -0.1,-0.1 -0.2,0 -0.3,0.1 l -0.5,0.9 -0.2,0.4 -0.2,0.4 c -0.7,-0.3 -1.6,-0.5 -2.4,-0.5 -0.9,0 -1.7,0.2 -2.4,0.5 l -0.2,-0.4 -0.2,-0.4 -0.5,-0.9 c -0.1,-0.1 -0.2,-0.1 -0.3,-0.1 -0.1,0.1 -0.1,0.2 -0.1,0.3 l 0.5,0.8 0.2,0.4 0.2,0.4 c -1.7,0.8 -2.9,2.4 -2.9,4.3 l 11.5,0 c -0.1,-1.8 -1.2,-3.4 -3,-4.3 l 0,0 z m -5.3,2.6 c -0.3,0 -0.6,-0.3 -0.6,-0.6 0,-0.4 0.3,-0.6 0.6,-0.6 0.3,0 0.6,0.3 0.6,0.6 0.1,0.3 -0.2,0.6 -0.6,0.6 l 0,0 z m 5,0 c -0.3,0 -0.6,-0.3 -0.6,-0.6 0,-0.4 0.3,-0.6 0.6,-0.6 0.3,0 0.6,0.3 0.6,0.6 0,0.3 -0.3,0.6 -0.6,0.6 z m -8.1,2.6 0,0 -0.1,9.4 c 0,0.7 0.6,1.3 1.3,1.3 l 0.9,0 c 0,0.1 0,0.2 0,0.4 l 0,2.7 c 0,0.7 0.5,1.3 1.2,1.3 0.7,0 1.2,-0.6 1.2,-1.3 l 0,-2.8 c 0,-0.1 0,-0.2 0,-0.4 l 2.3,0 c 0,0.1 0,0.2 0,0.4 l 0,2.7 c 0,0.7 0.5,1.3 1.2,1.3 0.7,0 1.2,-0.6 1.2,-1.3 l 0,-2.7 c 0,-0.1 0,-0.2 0,-0.4 l 0.9,0 c 0.7,0 1.3,-0.6 1.3,-1.3 l 0,-9.3 -11.4,0 z m -2.2,0 c -0.7,0 -1.2,0.6 -1.2,1.3 l 0,5.5 c 0,0.7 0.6,1.3 1.2,1.3 0.7,0 1.2,-0.6 1.2,-1.3 l 0,-5.5 c 0.1,-0.8 -0.5,-1.3 -1.2,-1.3 z m 15.6,0 c -0.7,0 -1.2,0.6 -1.2,1.3 l 0,5.5 c 0,0.7 0.6,1.3 1.2,1.3 0.6,0 1.2,-0.6 1.2,-1.3 l 0,-5.5 c 0,-0.8 -0.6,-1.3 -1.2,-1.3 z"
     inkscape:connector-curvature="0" /><circle
     id="Oval_51_"
     cx="-217"
     cy="323"
     r="22"
     style="fill:none;stroke:#000000;stroke-width:2" /><path
     id="Shape_52_"
     d="m -212.2,323.4 -10.7,10.3 0,0 -0.3,0.3 c 0.5,-0.3 9.4,-5.3 9.4,-5.3 l 4.5,-2.5 -0.1,-0.1 -2.8,-2.7 z m 3.5,-3.3 0,0 0,0 -0.2,0.2 -1.3,1.3 -1.4,1.4 0,0 0,0 -0.1,0.1 2.8,2.8 0.1,0.1 0,0 0.1,0.1 4.3,-2.4 c 0.5,-0.3 0.5,-0.6 0.2,-0.9 l -0.1,0 -0.1,-0.1 c -0.4,-0.4 -3.8,-2.4 -4.3,-2.6 l 0,0 z m -15.2,-8 c -0.1,0.1 -0.1,0.2 -0.1,0.4 l 0,10.5 0,10.6 c 0,0.1 0,0.2 0.1,0.3 l 0,0 0,0 0.1,-0.2 11.2,-10.8 -0.1,-0.1 0,0 0,0 -11,-10.6 -0.2,-0.1 0,0 0,0 z m 0.8,-0.1 0.2,0.2 0,0 0,0 10.7,10.3 1.1,-1.1 1.6,-1.6 0.1,-0.1 -4.5,-2.5 -9.1,-5.2 c 0,0 0,0 -0.1,0 0.1,0 0,0 0,0 l 0,0 z"
     inkscape:connector-curvature="0" /><circle
     id="Oval_52_"
     cx="-157"
     cy="323"
     r="22"
     style="fill:none;stroke:#000000;stroke-width:2" /><path
     id="Shape_53_"
     d="m -157.7,314.6 0,7.9 9.7,0 0,-9.5 -9.7,1.6 z m 0,16.8 9.7,1.6 0,-9.4 -9.7,0 0,7.8 z m -8.3,-9 7.3,0 0,-7.7 -7.3,1.2 0,6.5 z m 0,7.7 7.3,1.2 0,-7.7 -7.3,0 0,6.5 z"
     inkscape:connector-curvature="0" /><circle
     id="Oval_53_"
     cx="-97"
     cy="323"
     r="22"
     style="fill:none;stroke:#000000;stroke-width:2" /><path
     id="Shape_54_"
     d="m -108.8,328.8 c -0.2,0 -0.3,0.3 -0.1,0.5 3.1,3.6 7.3,5.7 11.9,5.7 3.3,0 7.1,-1.3 9.7,-3.8 0.4,-0.4 0.1,-1 -0.4,-0.8 -2.9,1.6 -6.1,2.3 -9.1,2.3 -4.3,0 -8.5,-1.5 -11.9,-4 0,0.1 0,0.1 -0.1,0.1 m 22,-0.6 c -0.8,0 -1.8,0.3 -2.6,0.9 -0.2,0.2 -0.2,0.5 0.1,0.4 0.8,-0.1 2.7,-0.4 3.1,0.1 0.3,0.5 -0.4,2.8 -0.7,3.8 -0.1,0.3 0.1,0.4 0.3,0.2 1.4,-1.5 1.8,-4.6 1.5,-5.1 -0.1,-0.1 -0.8,-0.3 -1.7,-0.3 m -8.5,-7.1 0,0.7 c 0,1.2 0,2.2 -0.6,3.3 -0.5,0.9 -1.2,1.4 -2.1,1.4 -1.1,0 -1.8,-0.9 -1.8,-2.2 0,-2.7 2.3,-3.2 4.5,-3.2 M -97,312 c -2.8,0 -6,1.1 -6.7,4.7 -0.1,0.4 0.2,0.6 0.4,0.6 l 2.9,0.3 c 0.3,0 0.5,-0.3 0.5,-0.6 0.2,-1.2 1.3,-1.8 2.4,-1.8 0.6,0 1.3,0.2 1.7,0.8 0.4,0.6 0.4,1.5 0.4,2.2 l 0,0.4 c -1.7,0.2 -4,0.3 -5.6,1.1 -1.9,0.8 -3.2,2.5 -3.2,5 0,3.2 2,4.8 4.5,4.8 2.1,0 3.3,-0.5 4.9,-2.2 0.5,0.8 0.7,1.2 1.7,2 0.2,0.1 0.5,0.1 0.7,-0.1 l 0,0 c 0.6,-0.5 1.7,-1.5 2.3,-2 0.2,-0.2 0.2,-0.5 0,-0.8 -0.5,-0.8 -1.1,-1.4 -1.1,-2.8 l 0,-4.8 c 0,-2 0.1,-3.9 -1.3,-5.3 -1.1,-1.1 -3,-1.5 -4.5,-1.5"
     inkscape:connector-curvature="0" /><circle
     id="Oval_54_"
     cx="-37"
     cy="323"
     r="22"
     style="fill:none;stroke:#000000;stroke-width:2" /><path
     id="Shape_55_"
     d="m -32.1,323.3 c -0.3,0 -0.6,0 -0.9,0.1 0.1,-0.7 0.4,-1.5 1.3,-1.4 1.1,0 1.2,1 1.2,1.7 -0.4,-0.2 -1,-0.4 -1.6,-0.4 l 0,0 z m 4.6,-7.1 c -0.2,-1 -0.7,-1.4 -1.3,-1.6 -0.6,-0.2 -1.7,-0.4 -3.1,-0.6 -1.1,-0.1 -2.5,-0.1 -3.3,-0.1 -0.1,-0.7 -0.6,-1.3 -1.1,-1.5 -1.4,-0.6 -3.5,-0.4 -4.1,-0.3 -0.4,0.1 -0.9,0.4 -1.2,0.8 -0.2,0.3 -0.3,0.6 -0.3,1 0,0.3 0,0.9 0,1.4 0,0.5 0,1 0,1 0,0.5 -0.4,0.9 -0.9,0.9 l -2.2,0 c -0.5,0 -0.8,0.1 -1.1,0.2 -0.3,0.1 -0.5,0.3 -0.6,0.5 -0.3,0.4 -0.4,0.9 -0.4,1.4 0,0 0,0.4 0.1,1.2 0.1,0.6 0.8,5 1.4,6.3 0.2,0.5 0.4,0.7 0.9,1 1.1,0.5 3.6,1 4.7,1.1 1.2,0.1 1.9,0.5 2.3,-0.4 0,0 0.1,-0.2 0.2,-0.6 0.4,-1.1 0.4,-2.2 0.4,-2.9 0,-0.1 0.1,-0.1 0.1,0 0,0.5 -0.1,2.3 1.3,2.8 0.5,0.2 1.7,0.4 2.8,0.5 1,0.1 1.8,0.5 1.8,3.2 0,1.6 -0.3,1.8 -2.1,1.8 -1.4,0 -2,0 -2,-1.1 0,-0.9 0.9,-0.8 1.6,-0.8 0.3,0 0.1,-0.2 0.1,-0.8 0,-0.6 0.4,-0.9 0,-0.9 -2.4,-0.1 -3.7,0 -3.7,2.9 0,2.7 1,3.2 4.4,3.2 2.6,0 3.5,-0.1 4.6,-3.4 0.2,-0.7 0.7,-2.7 1,-6.1 0.3,-2 0,-8.5 -0.3,-10.1 l 0,0 z m -17.5,0.4 0,0 2.2,0 c 0.1,0 0.2,-0.1 0.2,-0.2 0,0 0,-1.9 0,-2.5 l 0,0 c 0,-0.4 0.1,-0.8 0.3,-1.1 l 0.1,-0.1 0,0 -4.4,4.3 0,0 c 0.1,0 0.2,-0.1 0.2,-0.1 0.4,-0.2 0.8,-0.3 1.4,-0.3 l 0,0 z"
     inkscape:connector-curvature="0" /><circle
     id="Oval_55_"
     cx="23"
     cy="323"
     r="22"
     style="fill:none;stroke:#000000;stroke-width:2" /><path
     id="Shape_56_"
     d="M 12,324.7 18.5,329 23,325.1 16.5,321 12,324.7 Z M 18.5,313 12,317.3 16.5,321 23,316.9 18.5,313 Z m 15.5,4.3 -6.5,-4.3 -4.5,3.9 6.5,4.1 4.5,-3.7 z m -11,7.8 4.5,3.9 6.5,-4.3 -4.5,-3.7 -6.5,4.1 z m 0,0.9 -4.5,3.9 -1.9,-1.3 0,1.5 6.5,4 6.5,-4 0,-1.5 -1.9,1.3 L 23,326 Z"
     inkscape:connector-curvature="0" /><circle
     id="Oval_56_"
     cx="83"
     cy="323"
     r="22"
     style="fill:none;stroke:#000000;stroke-width:2" /><path
     id="Shape_57_"
     d="m 79.7,327.2 -0.1,0 -0.1,0.1 -3,5.4 -0.2,0.3 14.4,0 0.1,-0.1 3,-5.4 0.2,-0.3 -14.3,0 z m 7.8,-1.4 0.1,0.1 0.1,0 6,0 0.4,0 -0.2,-0.3 -7,-12.5 -0.1,-0.1 -0.1,0 -6,0 -0.4,0 0.2,0.3 7,12.5 z m -5,-6.3 -0.1,-0.1 -3,-5.4 -0.2,-0.3 -0.2,0.3 -7,12.5 -0.1,0.1 0.1,0.1 3,5.4 0.2,0.3 0.2,-0.3 7,-12.5 0.1,-0.1 z"
     inkscape:connector-curvature="0" /><circle
     id="Oval_57_"
     cx="143"
     cy="323"
     r="22"
     style="fill:none;stroke:#000000;stroke-width:2" /><path
     id="Shape_58_"
     d="m 154,320 -7.6,-1.1 -3.4,-6.9 -3.4,6.9 -7.6,1.1 5.5,5.4 -1.3,7.6 6.8,-3.6 6.8,3.6 -1.3,-7.6 5.5,-5.4"
     inkscape:connector-curvature="0" /><circle
     id="Oval_58_"
     cx="203"
     cy="323"
     r="22"
     style="fill:none;stroke:#000000;stroke-width:2" /><path
     id="Shape_59_"
     d="m 203,312 c -6.1,0 -11,4.9 -11,11 0,6.1 4.9,11 11,11 6.1,0 11,-4.9 11,-11 0,-6.1 -4.9,-11 -11,-11 l 0,0 z m 0,20.6 c -1.4,0 -2.6,-0.3 -3.8,-0.8 l 5,-5.6 c 0.1,-0.1 0.2,-0.3 0.2,-0.5 l 0,-2.1 c 0,-0.4 -0.3,-0.7 -0.7,-0.7 -2.4,0 -5,-2.5 -5,-2.5 -0.1,-0.1 -0.3,-0.2 -0.5,-0.2 l -2.8,0 c -0.4,0 -0.7,0.3 -0.7,0.7 l 0,4.1 c 0,0.3 0.1,0.5 0.4,0.6 l 2.4,1.2 0,4 c -2.5,-1.7 -4.1,-4.6 -4.1,-7.9 0,-1.5 0.3,-2.9 0.9,-4.1 l 2.5,0 c 0.2,0 0.4,-0.1 0.5,-0.2 l 2.8,-2.8 c 0.1,-0.1 0.2,-0.3 0.2,-0.5 l 0,-1.7 c 0.9,-0.3 1.8,-0.4 2.8,-0.4 1.5,0 2.9,0.3 4.2,1 -0.1,0.1 -0.2,0.2 -0.3,0.2 -0.8,0.8 -1.2,1.8 -1.2,2.9 0,1.1 0.4,2.1 1.2,2.9 0.8,0.8 1.8,1.2 2.9,1.2 0.1,0 0.1,0 0.2,0 0.3,1.1 0.8,4 -0.2,8 l 0,0.1 c -1.8,2 -4.2,3.1 -6.9,3.1 l 0,0 0,0 z"
     inkscape:connector-curvature="0" /></svg>